<?xml version="1.0" encoding="UTF-8"?>
<svg version="1.1" xmlns="http://www.w3.org/2000/svg" width="128" height="128">
<path d="M0 0 C42.24 0 84.48 0 128 0 C128 42.24 128 84.48 128 128 C85.76 128 43.52 128 0 128 C0 85.76 0 43.52 0 0 Z " fill="#D9280D" transform="translate(0,0)"/>
<path d="M0 0 C14.85 0 29.7 0 45 0 C45 42.24 45 84.48 45 128 C34.130625 128.2475 23.26125 128.495 12.0625 128.75 C6.93859741 128.91387207 6.93859741 128.91387207 1.71118164 129.08105469 C-1.0141027 129.1161208 -3.73945013 129.14669505 -6.46484375 129.171875 C-7.16194962 129.20323547 -7.85905548 129.23459595 -8.57728577 129.26690674 C-19.82494212 129.74704805 -19.82494212 129.74704805 -23.53767776 126.76490784 C-26.58539623 123.52313622 -28.85469381 119.89643989 -31 116 C-28.4345406 113.4345406 -26.52313332 113.45953913 -23 113 C-23.53109375 112.27554688 -24.0621875 111.55109375 -24.609375 110.8046875 C-28.17130784 105.92977941 -31.71404976 101.06583995 -35 96 C-35.86625 96.495 -35.86625 96.495 -36.75 97 C-39 98 -39 98 -43 98 C-43 97.34 -43 96.68 -43 96 C-42.278125 95.62875 -41.55625 95.2575 -40.8125 94.875 C-35.88074929 91.58716619 -33.55992823 86.22505899 -31 81 C-30.34 81 -29.68 81 -29 81 C-29 80.34 -29 79.68 -29 79 C-28.29875 78.814375 -27.5975 78.62875 -26.875 78.4375 C-21.92862 75.96431 -19.0192559 71.52888385 -16 67 C-15.34 67.33 -14.68 67.66 -14 68 C-14.474375 68.556875 -14.94875 69.11375 -15.4375 69.6875 C-17.12395996 72.18346074 -17.58953107 74.0446237 -18 77 C-16.02 76.01 -14.04 75.02 -12 74 C-11.67 75.32 -11.34 76.64 -11 78 C-10.319375 77.649375 -9.63875 77.29875 -8.9375 76.9375 C-5.2912211 75.77379397 -2.71510022 76.27154898 1 77 C0.51171875 83.0546875 0.51171875 83.0546875 0 85 C-3.74631343 87.49754229 -5.46164109 87.18720426 -9.76953125 86.625 C-13.13659629 85.68151417 -14.87054433 83.67899262 -17 81 C-17.32321868 86.49471751 -17.5464527 90.46054055 -14 95 C-12.31445405 96.68554595 -10.31295927 96.33148937 -8 96.4375 C-1.42119098 96.33537101 2.20274437 94.35981273 7 90 C14.98994726 80.9085469 19.8659405 69.84111447 25.125 59.0625 C26.00035258 57.28664103 26.87664931 55.51124713 27.75390625 53.73632812 C29.42724119 50.34766517 31.09553126 46.95660829 32.75878906 43.56298828 C35.47430398 38.02611988 38.2294612 32.50954643 41 27 C39.081875 27.0309375 39.081875 27.0309375 37.125 27.0625 C33.25 27.125 33.25 27.125 31 26 C25.17088468 25.53367077 21.27801858 26.77767639 16 29 C13.01200554 24.2916451 10.09923198 19.54375937 7.25 14.75 C6.65703125 13.75484375 6.0640625 12.7596875 5.453125 11.734375 C4 9 4 9 3.484375 6.703125 C3.24460937 5.86007812 3.24460937 5.86007812 3 5 C2.01 4.67 1.02 4.34 0 4 C0 2.68 0 1.36 0 0 Z " fill="#CF1408" transform="translate(83,0)"/>
<path d="M0 0 C13.53 0 27.06 0 41 0 C46 9 46 9 48.3515625 13.2734375 C49.10915951 14.64074442 49.86697041 16.00793285 50.625 17.375 C51.0065625 18.07238281 51.388125 18.76976563 51.78125 19.48828125 C52.15507813 20.15988281 52.52890625 20.83148437 52.9140625 21.5234375 C53.2435791 22.12075684 53.5730957 22.71807617 53.91259766 23.33349609 C55.09187955 25.14081047 56.42846657 26.52819311 58 28 C59.010625 27.505 60.02125 27.01 61.0625 26.5 C66.48180788 24.17900349 71.35912629 24.81244764 77 26 C78.6662553 26.0370279 80.33401319 26.04759962 82 26 C82.495 26.99 82.495 26.99 83 28 C81.92700195 30.50830078 81.92700195 30.50830078 80.23828125 33.6953125 C79.93641907 34.27140762 79.63455688 34.84750275 79.32354736 35.4410553 C78.32712295 37.33962422 77.31996375 39.23226922 76.3125 41.125 C74.91827016 43.76764145 73.52912163 46.41293633 72.140625 49.05859375 C71.7893605 49.72621231 71.43809601 50.39383087 71.07618713 51.0816803 C68.85106734 55.32553915 66.7024213 59.59905878 64.609375 63.91015625 C64.09205811 64.97282715 63.57474121 66.03549805 63.04174805 67.13037109 C62.08810365 69.10124668 61.14353873 71.07655412 60.21020508 73.05712891 C55.59414788 82.54319841 49.15751105 92.83281598 39 97 C33.94528589 97.87908071 29.68693757 98.16479023 25.375 95.1875 C23.25722544 91.8183132 22.88112694 89.20224105 22.9375 85.3125 C22.94652344 84.50425781 22.95554687 83.69601563 22.96484375 82.86328125 C22.97644531 82.24839844 22.98804687 81.63351563 23 81 C23.99 80.505 23.99 80.505 25 80 C25.474375 80.804375 25.94875 81.60875 26.4375 82.4375 C29.64029221 85.64029221 31.60797637 85.72087527 35.9765625 86.0546875 C38.07079556 86.1408045 38.07079556 86.1408045 40 85 C40.68472665 83.11235097 40.68472665 83.11235097 41.125 80.9375 C41.29257813 80.20402344 41.46015625 79.47054687 41.6328125 78.71484375 C41.75398438 78.14894531 41.87515625 77.58304687 42 77 C35.91591528 76.80185739 35.91591528 76.80185739 30 78 C29.34 77.01 28.68 76.02 28 75 C27.01 75.99 27.01 75.99 26 77 C25.01 77 24.02 77 23 77 C22.875 72.25 22.875 72.25 24 70 C23.20335937 70.97453125 23.20335937 70.97453125 22.390625 71.96875 C21.33101562 73.22171875 21.33101562 73.22171875 20.25 74.5 C19.55390625 75.3353125 18.8578125 76.170625 18.140625 77.03125 C16 79 16 79 12 79 C12 79.66 12 80.32 12 81 C11.34 81 10.68 81 10 81 C10.21479302 74.87839891 11.36436437 71.82604211 15.4296875 67.25 C17 66 17 66 20 66 C19.67 67.65 19.34 69.3 19 71 C18.01 71 17.02 71 16 71 C15.67 72.32 15.34 73.64 15 75 C18.39393978 73.59561113 20.08345227 72.13616902 22 69 C22.72351427 67.01985568 23.40265389 65.02178685 24 63 C24.66 63 25.32 63 26 63 C26.495 63.99 26.495 63.99 27 65 C27.66 65 28.32 65 29 65 C28.34 67.64 27.68 70.28 27 73 C27.48210937 72.36191406 27.96421875 71.72382812 28.4609375 71.06640625 C29.09257813 70.24011719 29.72421875 69.41382812 30.375 68.5625 C31.31472656 67.32693359 31.31472656 67.32693359 32.2734375 66.06640625 C34 64 34 64 36 63 C33.36 61.02 30.72 59.04 28 57 C28.33 54.36 28.66 51.72 29 49 C28.34 49 27.68 49 27 49 C27 48.01 27 47.02 27 46 C26.87625 46.9075 26.7525 47.815 26.625 48.75 C26.07890323 51.58970323 25.42736197 53.52590591 24 56 C22.9171875 55.9690625 22.9171875 55.9690625 21.8125 55.9375 C19.08074862 55.99820559 16.65743909 56.39258535 14 57 C12.87622303 53.69564916 13.10445258 51.9493138 14.4375 48.75 C14.86869141 47.69039062 14.86869141 47.69039062 15.30859375 46.609375 C15.53675781 46.07828125 15.76492187 45.5471875 16 45 C15.34 45 14.68 45 14 45 C12.68 47.97 11.36 50.94 10 54 C10.66 54.33 11.32 54.66 12 55 C11.34 55.99 10.68 56.98 10 58 C9.21625 57.79375 8.4325 57.5875 7.625 57.375 C6.75875 57.25125 5.8925 57.1275 5 57 C4.34 57.66 3.68 58.32 3 59 C1.68 59 0.36 59 -1 59 C-1.4589303 53.26337126 -0.57654928 50.49623338 3 46 C3.474375 45.401875 3.94875 44.80375 4.4375 44.1875 C6.52134157 42.60378041 8.43815472 42.34619531 11 42 C11 40.68 11 39.36 11 38 C9.68 37.67 8.36 37.34 7 37 C7 36.34 7 35.68 7 35 C7.65073486 34.91435791 8.30146973 34.82871582 8.97192383 34.74047852 C11.91919374 34.35085906 14.86584371 33.95673217 17.8125 33.5625 C18.83666016 33.42779297 19.86082031 33.29308594 20.91601562 33.15429688 C21.89892578 33.02216797 22.88183594 32.89003906 23.89453125 32.75390625 C24.80050049 32.63345947 25.70646973 32.5130127 26.63989258 32.38891602 C29.1418344 32.04037128 29.1418344 32.04037128 32 31 C31.4225 30.45730469 30.845 29.91460938 30.25 29.35546875 C29.5075 28.64003906 28.765 27.92460937 28 27.1875 C26.88625 26.12595703 26.88625 26.12595703 25.75 25.04296875 C24 23 24 23 24 20 C23.01 20.33 22.02 20.66 21 21 C20.27296875 20.25556641 20.27296875 20.25556641 19.53125 19.49609375 C15.49134981 15.40181029 11.38496456 11.50879166 6.95703125 7.8359375 C4.40963477 5.44616436 2.23609038 2.68330846 0 0 Z " fill="#F57803" transform="translate(42,0)"/>
<path d="M0 0 C24.19828473 -1.90947727 24.19828473 -1.90947727 29.89453125 2.203125 C32.55993746 4.99436584 34.77444579 7.85206781 37 11 C38.45582973 12.40154456 39.9525296 13.76284515 41.5 15.0625 C42.1084375 15.58972656 42.716875 16.11695312 43.34375 16.66015625 C45.17176941 18.18099264 45.17176941 18.18099264 48 20 C48.99 19.67 49.98 19.34 51 19 C51.020625 19.680625 51.04125 20.36125 51.0625 21.0625 C52.46887896 25.46915407 55.6309507 27.94762374 59 31 C51.4612714 35.34435207 41.49110349 35.28783402 33 35 C33 35.66 33 36.32 33 37 C33.61875 37.0825 34.2375 37.165 34.875 37.25 C37 38 37 38 38.25 40.0625 C38.4975 40.701875 38.745 41.34125 39 42 C36.96692639 43.08914658 35.29241364 43.95431037 33 44.3125 C29.79598237 45.41388106 28.78016351 47.15173838 27 50 C26.11491283 52.96852271 25.50573339 55.94563651 25 59 C28.54518884 57.60240095 28.54518884 57.60240095 32 56 C32 56.66 32 57.32 32 58 C33.98 57.505 33.98 57.505 36 57 C36 56.01 36 55.02 36 54 C36.41029184 52.46550853 36.87344986 50.94463335 37.375 49.4375 C37.63023438 48.65246094 37.88546875 47.86742187 38.1484375 47.05859375 C39 45 39 45 41 43 C41.66 43.99 42.32 44.98 43 46 C42.07175817 48.3627974 41.06902939 50.69747517 40 53 C40 53.99 40 54.98 40 56 C44.95 55.505 44.95 55.505 50 55 C51.07888766 52.0517137 51.07888766 52.0517137 51.4375 49.0625 C51.94502126 46.29932868 52.61016447 44.40904825 54 42 C55.24546405 44.49092811 54.7767578 45.41080733 54 48 C54.99 48.495 54.99 48.495 56 49 C55.34 51.64 54.68 54.28 54 57 C54.556875 57.226875 55.11375 57.45375 55.6875 57.6875 C58.63246684 59.35896766 60.68156544 61.55276352 63 64 C62.40703125 64.24492188 61.8140625 64.48984375 61.203125 64.7421875 C58.63301274 66.20952109 57.45470034 67.72292225 55.75 70.125 C54.96882813 71.21167969 54.96882813 71.21167969 54.171875 72.3203125 C53.78515625 72.87460938 53.3984375 73.42890625 53 74 C52 71 52 71 53.4375 67.8125 C53.953125 66.884375 54.46875 65.95625 55 65 C54.01 65.33 53.02 65.66 52 66 C52 65.01 52 64.02 52 63 C51.34 63 50.68 63 50 63 C49.773125 64.03125 49.54625 65.0625 49.3125 66.125 C48.13528144 70.34408258 45.95161029 72.81536784 43 76 C42.01 75.67 41.02 75.34 40 75 C40.375 72.5625 40.375 72.5625 41 70 C41.66 69.67 42.32 69.34 43 69 C43.33 69.66 43.66 70.32 44 71 C44.66 69.35 45.32 67.7 46 66 C42.45866542 67.91423491 40.00325015 69.47046402 38 73 C37.731875 74.2375 37.46375 75.475 37.1875 76.75 C36.11180945 81.64117413 33.48403426 85.44022587 30 89 C29.34 89 28.68 89 28 89 C28.30853734 80.82376041 31.73332332 74.2451743 36.6953125 67.796875 C38.19584798 66.10036568 38.19584798 66.10036568 38 64 C35.56921552 64.38418411 34.290812 64.70065634 32.55200195 66.49047852 C32.11847412 67.11365967 31.68494629 67.73684082 31.23828125 68.37890625 C30.75939453 69.05244141 30.28050781 69.72597656 29.78710938 70.41992188 C29.05717773 71.48049805 29.05717773 71.48049805 28.3125 72.5625 C27.33206635 73.96148877 26.34913385 75.35873086 25.36328125 76.75390625 C24.93313721 77.37595947 24.50299316 77.9980127 24.05981445 78.63891602 C23.71007568 79.08807373 23.36033691 79.53723145 23 80 C22.67 80 22.34 80 22 80 C22.33 75.05 22.66 70.1 23 65 C20.525 65.495 20.525 65.495 18 66 C17.95875 67.0725 17.9175 68.145 17.875 69.25 C16.72926807 78.22490013 11.14666664 88.36601874 4 94 C1.28515625 94.70703125 1.28515625 94.70703125 -1 95 C-1.36275695 90.52599758 -1.36275695 90.52599758 0.25 88.1875 C2 87 2 87 6 87 C4.74458443 84.48916886 3.49936512 84.12874554 1 83 C2.485 82.505 2.485 82.505 4 82 C4.33 80.68 4.66 79.36 5 78 C2.03 78 -0.94 78 -4 78 C-4 77.01 -4 76.02 -4 75 C-2.80375 75.0825 -1.6075 75.165 -0.375 75.25 C4.18751744 75.2178696 6.49892381 74.04441408 10 71 C15.74687916 64.63630354 19.42834423 56.89228592 23.28857422 49.31665039 C24.38399493 47.16987196 25.49389406 45.03102912 26.60546875 42.89257812 C27.30815612 41.52648598 28.01001003 40.15996472 28.7109375 38.79296875 C29.04209564 38.15546188 29.37325378 37.51795502 29.71444702 36.86112976 C31.14823083 34.02851318 32 32.22275567 32 29 C31.05125 29.185625 30.1025 29.37125 29.125 29.5625 C26 30 26 30 24 29 C22.02533743 28.76985947 20.04475714 28.58887236 18.0625 28.4375 C17.00160156 28.35371094 15.94070312 28.26992188 14.84765625 28.18359375 C12.90151754 28.05812253 10.9501792 28 9 28 C8.34 27.67 7.68 27.34 7 27 C7 25.68 7 24.36 7 23 C6.34 22.67 5.68 22.34 5 22 C4.34 21.01 3.68 20.02 3 19 C2.34 18.67 1.68 18.34 1 18 C1.99 17.67 2.98 17.34 4 17 C3.79375 16.05125 3.5875 15.1025 3.375 14.125 C3.25125 13.09375 3.1275 12.0625 3 11 C3.66 10.34 4.32 9.68 5 9 C4.54625 8.62875 4.0925 8.2575 3.625 7.875 C1.5342422 5.46258716 0.94186976 3.0221734 0 0 Z " fill="#CE1509" transform="translate(16,0)"/>
<path d="M0 0 C5.82105549 7.27631936 9.00242951 12.84627401 9.75390625 22.109375 C9.80573168 24.00903861 9.80573168 24.00903861 11 25 C14.83211963 25.36847304 17.18129454 25.52299008 20.4765625 23.41796875 C23.41448986 20.60283402 25.24289262 17.5559183 27.125 14 C29.20841376 10.15493522 31.24720667 6.41961905 34 3 C33.67 5.31 33.34 7.62 33 10 C32.34 10 31.68 10 31 10 C30.566875 11.3921875 30.566875 11.3921875 30.125 12.8125 C29 16 29 16 27 19 C27 19.99 27 20.98 27 22 C29.40626965 23.79952269 31.7718102 25.41352703 34.3125 27 C35.68561755 27.87182067 37.05678312 28.74672487 38.42578125 29.625 C39.34484253 30.20121094 39.34484253 30.20121094 40.2824707 30.7890625 C42 32 42 32 45 35 C42.03 36.32 39.06 37.64 36 39 C37.14275391 39.76183594 37.14275391 39.76183594 38.30859375 40.5390625 C40.4498199 41.9665466 42.59041499 43.39497763 44.73046875 44.82421875 C46.74902916 46.16751403 48.77165481 47.5047505 50.80078125 48.83203125 C51.60902344 49.36183594 52.41726562 49.89164063 53.25 50.4375 C53.97703125 50.91058594 54.7040625 51.38367188 55.453125 51.87109375 C55.96359375 52.24363281 56.4740625 52.61617187 57 53 C57 53.33 57 53.66 57 54 C38.19 54 19.38 54 0 54 C0 36.18 0 18.36 0 0 Z " fill="#CC1005" transform="translate(0,74)"/>
<path d="M0 0 C14.85 0 29.7 0 45 0 C45.1546875 9.03375 45.1546875 9.03375 45.3125 18.25 C45.35802002 20.14524414 45.40354004 22.04048828 45.45043945 23.99316406 C45.46504671 25.50063304 45.47778682 27.00812178 45.48828125 28.515625 C45.526651 29.68327393 45.526651 29.68327393 45.5657959 30.87451172 C45.56900381 34.86002139 45.3907104 36.58902643 42.59448242 39.53027344 C40 41 40 41 38 41 C37.896875 41.515625 37.79375 42.03125 37.6875 42.5625 C37 45 37 45 35.45703125 47.96484375 C33.32780883 52.8733694 33.78825847 57.74881014 34 63 C34.27647955 69.85669289 34.2708457 74.8671643 31 81 C31.66 81 32.32 81 33 81 C32.34 82.98 31.68 84.96 31 87 C30.01 87 29.02 87 28 87 C28 88.65 28 90.3 28 92 C24.57228865 88.0826156 20 82.47848189 20 77 C19.34 76.67 18.68 76.34 18 76 C20.14775425 71.67938738 22.2983695 67.36021415 24.45141602 63.04223633 C25.18035498 61.5793931 25.90856989 60.11618881 26.63598633 58.65258789 C27.69412433 56.52389757 28.7546355 54.39641175 29.81640625 52.26953125 C30.16474518 51.57054718 30.51308411 50.87156311 30.87197876 50.15139771 C33.67833128 44.55605962 36.67037527 39.08511206 39.76538086 33.64331055 C41.2821252 30.88220969 41.2821252 30.88220969 41 27 C39.081875 27.0309375 39.081875 27.0309375 37.125 27.0625 C33.25 27.125 33.25 27.125 31 26 C25.17088468 25.53367077 21.27801858 26.77767639 16 29 C13.01200554 24.2916451 10.09923198 19.54375937 7.25 14.75 C6.65703125 13.75484375 6.0640625 12.7596875 5.453125 11.734375 C4 9 4 9 3.484375 6.703125 C3.32453125 6.14109375 3.1646875 5.5790625 3 5 C2.01 4.67 1.02 4.34 0 4 C0 2.68 0 1.36 0 0 Z " fill="#DC290E" transform="translate(83,0)"/>
<path d="M0 0 C1.6662553 0.0370279 3.33401319 0.04759962 5 0 C5.495 0.99 5.495 0.99 6 2 C4.92700195 4.50830078 4.92700195 4.50830078 3.23828125 7.6953125 C2.93641907 8.27140762 2.63455688 8.84750275 2.32354736 9.4410553 C1.32712295 11.33962422 0.31996375 13.23226922 -0.6875 15.125 C-2.08172984 17.76764145 -3.47087837 20.41293633 -4.859375 23.05859375 C-5.2106395 23.72621231 -5.56190399 24.39383087 -5.92381287 25.0816803 C-8.14893266 29.32553915 -10.2975787 33.59905878 -12.390625 37.91015625 C-12.90794189 38.97282715 -13.42525879 40.03549805 -13.95825195 41.13037109 C-14.91189635 43.10124668 -15.85646127 45.07655412 -16.78979492 47.05712891 C-21.40585212 56.54319841 -27.84248895 66.83281598 -38 71 C-43.05471411 71.87908071 -47.31306243 72.16479023 -51.625 69.1875 C-53.74277456 65.8183132 -54.11887306 63.20224105 -54.0625 59.3125 C-54.05347656 58.50425781 -54.04445313 57.69601563 -54.03515625 56.86328125 C-54.02355469 56.24839844 -54.01195313 55.63351563 -54 55 C-53.01 54.505 -53.01 54.505 -52 54 C-51.525625 54.804375 -51.05125 55.60875 -50.5625 56.4375 C-47.47242657 59.52757343 -45.70796407 60.009461 -41.44140625 60.26953125 C-36.99364547 59.77849846 -33.5909601 57.54905745 -30 55 C-28.77023438 54.12988281 -28.77023438 54.12988281 -27.515625 53.2421875 C-24.55289155 50.60149029 -22.55683198 47.66280363 -20.5 44.3125 C-20.11271729 43.69616699 -19.72543457 43.07983398 -19.32641602 42.44482422 C-16.38272223 37.72332918 -13.59234585 32.92415443 -11 28 C-11.61875 28.33 -12.2375 28.66 -12.875 29 C-18.31739797 30.74156735 -23.80732197 30.98446769 -29.0625 28.625 C-31.21688572 26.81809585 -31.89313047 25.86021214 -32.23828125 23.08203125 C-32.41965228 17.53589598 -31.72359335 13.32096127 -28 9 C-19.37243962 0.97203841 -11.82760822 -2.49002278 0 0 Z " fill="#F9F4F3" transform="translate(119,26)"/>
<path d="M0 0 C1.32 0.33 2.64 0.66 4 1 C2.69240478 4.5348866 1.11260596 7.53148447 -0.9375 10.6875 C-3.95408051 15.59220914 -5.64798558 20.42590547 -7 26 C-6.236875 25.236875 -5.47375 24.47375 -4.6875 23.6875 C-2.79166667 21.79166667 -0.89583333 19.89583333 1 18 C-0.62548079 23.68918277 -3.23020286 29.26711528 -8 33 C-8.99 33 -9.98 33 -11 33 C-11 33.66 -11 34.32 -11 35 C-9.88625 34.505 -9.88625 34.505 -8.75 34 C-6 33 -6 33 -2 33 C0.03515625 35.265625 0.03515625 35.265625 2.0625 38.25 C2.73410156 39.22453125 3.40570313 40.1990625 4.09765625 41.203125 C4.72542969 42.12609375 5.35320313 43.0490625 6 44 C6.57621094 44.73734375 7.15242188 45.4746875 7.74609375 46.234375 C9 48 9 48 9 50 C6.69 50.99 4.38 51.98 2 53 C4.64 56.63 7.28 60.26 10 64 C6 65 6 65 2.57421875 63.0859375 C1.26982711 62.19506859 -0.02550435 61.29082049 -1.3125 60.375 C-1.95123047 59.93542969 -2.58996094 59.49585938 -3.24804688 59.04296875 C-5.17652116 57.71042623 -7.0902965 56.35928527 -9 55 C-9.67337402 54.52079102 -10.34674805 54.04158203 -11.04052734 53.54785156 C-12.69529161 52.3674836 -14.34787467 51.18405878 -16 50 C-13.3144406 47.3144406 -10.62378672 46.93950026 -7 46 C-10.80942969 42.8721067 -14.74950964 40.03113275 -18.8125 37.25 C-19.7087207 36.63318359 -19.7087207 36.63318359 -20.62304688 36.00390625 C-22.08087454 35.00092082 -23.54027474 34.0002217 -25 33 C-24.35550393 29.98782888 -23.34977818 27.48344164 -21.9375 24.75 C-21.57527344 24.04359375 -21.21304687 23.3371875 -20.83984375 22.609375 C-20.56269531 22.07828125 -20.28554688 21.5471875 -20 21 C-19.34 21 -18.68 21 -18 21 C-18 19.35 -18 17.7 -18 16 C-18.65355469 17.28583984 -18.65355469 17.28583984 -19.3203125 18.59765625 C-27.46341463 34.23170732 -27.46341463 34.23170732 -33 37 C-36.5 37.1875 -36.5 37.1875 -40 37 C-42 35 -42 35 -42.3125 31.6875 C-41.98354921 27.80588071 -41.35208803 26.04900301 -39 23 C-35.5647952 20.70986347 -34.014669 20.82157027 -30 21 C-29.67 21.99 -29.34 22.98 -29 24 C-29.78375 24.20625 -30.5675 24.4125 -31.375 24.625 C-34.30916286 25.80676612 -34.30916286 25.80676612 -35.3125 29.125 C-35.539375 30.07375 -35.76625 31.0225 -36 32 C-28.74591424 29.34606619 -24.82468656 23.70097094 -21.48046875 16.91796875 C-19.5101959 12.31309474 -17.84893004 7.94908153 -17 3 C-15.35 2.67 -13.7 2.34 -12 2 C-12 6.62 -12 11.24 -12 16 C-10.7625 14.288125 -9.525 12.57625 -8.25 10.8125 C-5.58784278 7.12984917 -2.86392794 3.52830761 0 0 Z " fill="#F07405" transform="translate(51,63)"/>
<path d="M0 0 C0.98120464 3.05263664 0.98120464 4.94736336 0 8 C0.61875 8.0825 1.2375 8.165 1.875 8.25 C4 9 4 9 5.25 11.0625 C5.4975 11.701875 5.745 12.34125 6 13 C3.96692639 14.08914658 2.29241364 14.95431037 0 15.3125 C-3.20401763 16.41388106 -4.21983649 18.15173838 -6 21 C-6.88508717 23.96852271 -7.49426661 26.94563651 -8 30 C-4.45481116 28.60240095 -4.45481116 28.60240095 -1 27 C-1 27.66 -1 28.32 -1 29 C0.32 28.67 1.64 28.34 3 28 C3 27.01 3 26.02 3 25 C3.41029184 23.46550853 3.87344986 21.94463335 4.375 20.4375 C4.75785156 19.25994141 4.75785156 19.25994141 5.1484375 18.05859375 C6 16 6 16 8 14 C8.66 14.99 9.32 15.98 10 17 C9.07175817 19.3627974 8.06902939 21.69747517 7 24 C7 24.99 7 25.98 7 27 C10.3 26.67 13.6 26.34 17 26 C18.07888766 23.0517137 18.07888766 23.0517137 18.4375 20.0625 C18.94502126 17.29932868 19.61016447 15.40904825 21 13 C22.24546405 15.49092811 21.7767578 16.41080733 21 19 C21.66 19.33 22.32 19.66 23 20 C22.34 22.64 21.68 25.28 21 28 C21.556875 28.226875 22.11375 28.45375 22.6875 28.6875 C25.63246684 30.35896766 27.68156544 32.55276352 30 35 C29.40703125 35.24492188 28.8140625 35.48984375 28.203125 35.7421875 C25.63301274 37.20952109 24.45470034 38.72292225 22.75 41.125 C22.22921875 41.84945312 21.7084375 42.57390625 21.171875 43.3203125 C20.59179688 44.15175781 20.59179688 44.15175781 20 45 C19 42 19 42 20.4375 38.8125 C20.953125 37.884375 21.46875 36.95625 22 36 C21.01 36.33 20.02 36.66 19 37 C19 36.01 19 35.02 19 34 C18.34 34 17.68 34 17 34 C16.773125 35.03125 16.54625 36.0625 16.3125 37.125 C15.13528144 41.34408258 12.95161029 43.81536784 10 47 C9.01 46.67 8.02 46.34 7 46 C7.375 43.5625 7.375 43.5625 8 41 C8.66 40.67 9.32 40.34 10 40 C10.33 40.66 10.66 41.32 11 42 C11.66 40.35 12.32 38.7 13 37 C9.45866542 38.91423491 7.00325015 40.47046402 5 44 C4.731875 45.2375 4.46375 46.475 4.1875 47.75 C3.11180945 52.64117413 0.48403426 56.44022587 -3 60 C-3.66 60 -4.32 60 -5 60 C-4.69146266 51.82376041 -1.26667668 45.2451743 3.6953125 38.796875 C5.19584798 37.10036568 5.19584798 37.10036568 5 35 C2.56921552 35.38418411 1.290812 35.70065634 -0.44799805 37.49047852 C-0.88152588 38.11365967 -1.31505371 38.73684082 -1.76171875 39.37890625 C-2.24060547 40.05244141 -2.71949219 40.72597656 -3.21289062 41.41992188 C-3.69951172 42.12697266 -4.18613281 42.83402344 -4.6875 43.5625 C-5.66793365 44.96148877 -6.65086615 46.35873086 -7.63671875 47.75390625 C-8.06686279 48.37595947 -8.49700684 48.9980127 -8.94018555 49.63891602 C-9.28992432 50.08807373 -9.63966309 50.53723145 -10 51 C-10.33 51 -10.66 51 -11 51 C-10.67 46.05 -10.34 41.1 -10 36 C-12.475 36.495 -12.475 36.495 -15 37 C-15.04125 38.0725 -15.0825 39.145 -15.125 40.25 C-16.27073193 49.22490013 -21.85333336 59.36601874 -29 65 C-31.71484375 65.70703125 -31.71484375 65.70703125 -34 66 C-34.36275695 61.52599758 -34.36275695 61.52599758 -32.75 59.1875 C-31 58 -31 58 -27 58 C-28.25541557 55.48916886 -29.50063488 55.12874554 -32 54 C-30.515 53.505 -30.515 53.505 -29 53 C-28.67 51.68 -28.34 50.36 -28 49 C-30.97 49 -33.94 49 -37 49 C-37 48.01 -37 47.02 -37 46 C-35.80375 46.0825 -34.6075 46.165 -33.375 46.25 C-28.81248256 46.2178696 -26.50107619 45.04441408 -23 42 C-17.24861067 35.6420652 -13.60732026 27.89756744 -9.76635742 20.31665039 C-8.67930473 18.17132645 -7.58183615 16.03158955 -6.48242188 13.89257812 C-5.78325364 12.52634882 -5.08466459 11.15982292 -4.38671875 9.79296875 C-4.06072189 9.15546188 -3.73472504 8.51795502 -3.39884949 7.86112976 C-2.08319005 5.26122994 -0.92319682 2.76959047 0 0 Z " fill="#B63220" transform="translate(49,29)"/>
<path d="M0 0 C2.63804589 -0.39397335 2.63804589 -0.39397335 5 -1 C5.83048713 1.36200897 6.12281498 2.62203804 5.33837891 5.03613281 C4.78802979 6.10879395 4.78802979 6.10879395 4.2265625 7.203125 C3.81841309 8.01112549 3.41026367 8.81912598 2.98974609 9.65161133 C2.53937988 10.50907959 2.08901367 11.36654785 1.625 12.25 C0.93978271 13.57777466 0.93978271 13.57777466 0.24072266 14.93237305 C-1.15961644 17.62873978 -2.57944963 20.31424073 -4 23 C-4.40669922 23.78777832 -4.81339844 24.57555664 -5.23242188 25.38720703 C-14.09973385 42.54986692 -14.09973385 42.54986692 -23 47 C-25.93421006 47.28395581 -28.15098834 47.49548029 -31 47 C-33.5 44.875 -33.5 44.875 -35 42 C-35.25 38.6875 -35.25 38.6875 -35 36 C-34.01 36 -33.02 36 -32 36 C-32 36.66 -32 37.32 -32 38 C-25.57988425 38.59201887 -21.0445 38.29080061 -15.6953125 34.51171875 C-13.17527335 32.26458707 -11.64238069 29.94259873 -10 27 C-10.53753906 27.32226562 -11.07507813 27.64453125 -11.62890625 27.9765625 C-16.19314697 29.94663016 -21.13306721 29.50462059 -26 29 C-29.25 27.625 -29.25 27.625 -31 25 C-31.90421725 20.15538648 -31.60057202 16.27621554 -29.5 11.8125 C-21.57091402 2.89227828 -12.46953009 -4.15651003 0 0 Z " fill="#F8F3F2" transform="translate(43,29)"/>
<path d="M0 0 C1 3 1 3 -0.4375 6 C-0.953125 6.99 -1.46875 7.98 -2 9 C-2 9.99 -2 10.98 -2 12 C-0.68 11.67 0.64 11.34 2 11 C2.12375 10.113125 2.2475 9.22625 2.375 8.3125 C2.94412736 5.29612498 3.76614436 2.79673946 5 0 C5.33 0 5.66 0 6 0 C6.08636719 0.84304687 6.17273438 1.68609375 6.26171875 2.5546875 C6.40222656 3.65039062 6.54273438 4.74609375 6.6875 5.875 C6.81511719 6.96554688 6.94273438 8.05609375 7.07421875 9.1796875 C7.71392794 12.16512703 7.71392794 12.16512703 10.2734375 13.3671875 C12.92875761 13.98346523 15.21568198 14.26719948 17.9375 14.25 C18.75089844 14.25515625 19.56429687 14.2603125 20.40234375 14.265625 C23.47205472 13.95172974 26.11090222 13.05975639 29 12 C23.11036482 24.80190799 16.89004015 37.05217694 4 44 C3.12159004 40.90279155 3.00564594 39.09354597 4 36 C-2.08408472 35.80185739 -2.08408472 35.80185739 -8 37 C-8.66 36.01 -9.32 35.02 -10 34 C-10.66 34.66 -11.32 35.32 -12 36 C-12.99 36 -13.98 36 -15 36 C-15.125 31.25 -15.125 31.25 -14 29 C-14.53109375 29.6496875 -15.0621875 30.299375 -15.609375 30.96875 C-16.31578125 31.8040625 -17.0221875 32.639375 -17.75 33.5 C-18.44609375 34.3353125 -19.1421875 35.170625 -19.859375 36.03125 C-22 38 -22 38 -26 38 C-26 38.66 -26 39.32 -26 40 C-26.66 40 -27.32 40 -28 40 C-27.78520698 33.87839891 -26.63563563 30.82604211 -22.5703125 26.25 C-21 25 -21 25 -18 25 C-18.33 26.65 -18.66 28.3 -19 30 C-19.99 30 -20.98 30 -22 30 C-22.33 31.32 -22.66 32.64 -23 34 C-19.60606022 32.59561113 -17.91654773 31.13616902 -16 28 C-15.27648573 26.01985568 -14.59734611 24.02178685 -14 22 C-13.34 22 -12.68 22 -12 22 C-11.67 22.66 -11.34 23.32 -11 24 C-10.34 24 -9.68 24 -9 24 C-9.66 26.64 -10.32 29.28 -11 32 C-10.51789063 31.36191406 -10.03578125 30.72382812 -9.5390625 30.06640625 C-8.90742187 29.24011719 -8.27578125 28.41382812 -7.625 27.5625 C-6.68527344 26.32693359 -6.68527344 26.32693359 -5.7265625 25.06640625 C-4 23 -4 23 -2 22 C-2.5775 21.59007813 -3.155 21.18015625 -3.75 20.7578125 C-4.4925 20.21898438 -5.235 19.68015625 -6 19.125 C-6.7425 18.59132813 -7.485 18.05765625 -8.25 17.5078125 C-8.8275 17.01023437 -9.405 16.51265625 -10 16 C-10 15.34 -10 14.68 -10 14 C-8.68 14 -7.36 14 -6 14 C-5.9071875 12.7625 -5.9071875 12.7625 -5.8125 11.5 C-4.76703783 6.99647063 -2.59542785 3.77342647 0 0 Z " fill="#B33820" transform="translate(80,41)"/>
<path d="M0 0 C0.495 0.99 0.495 0.99 1 2 C-0.05955097 4.40307767 -1.17983307 6.67758526 -2.41015625 8.9921875 C-2.77467392 9.693367 -3.13919159 10.39454651 -3.51475525 11.11697388 C-4.68987685 13.37363618 -5.87584986 15.62438198 -7.0625 17.875 C-7.83603944 19.35377303 -8.6088345 20.83293569 -9.38085938 22.3125 C-9.7589978 23.03586548 -10.13713623 23.75923096 -10.5267334 24.5045166 C-11.28107606 25.95218832 -12.03198715 27.40165342 -12.77941895 28.85290527 C-14.45678627 32.10167545 -16.1574719 35.30616714 -18.04296875 38.43945312 C-21.22745977 43.60564381 -21.22745977 43.60564381 -21.61645508 49.42333984 C-20.57685877 51.76262204 -19.37459037 53.67798535 -17.875 55.75 C-17.19050781 56.81347656 -17.19050781 56.81347656 -16.4921875 57.8984375 C-15.37072957 59.62735182 -14.19092947 61.31818562 -13 63 C-13.44980225 63.56082275 -13.89960449 64.12164551 -14.36303711 64.69946289 C-16.01306086 67.01835533 -17.08787041 69.19066091 -18.19140625 71.80859375 C-18.57876953 72.72060547 -18.96613281 73.63261719 -19.36523438 74.57226562 C-19.95788086 75.99055664 -19.95788086 75.99055664 -20.5625 77.4375 C-20.96146484 78.37916016 -21.36042969 79.32082031 -21.77148438 80.29101562 C-23.55564352 84.51163919 -25.30676343 88.74200105 -27 93 C-30.465 92.505 -30.465 92.505 -34 92 C-33.505 90.515 -33.505 90.515 -33 89 C-33.495 88.01 -33.495 88.01 -34 87 C-34.5775 87.226875 -35.155 87.45375 -35.75 87.6875 C-38 88 -38 88 -40.25 86.5625 C-40.8275 86.046875 -41.405 85.53125 -42 85 C-42.33 85.99 -42.66 86.98 -43 88 C-43.99 87.34 -44.98 86.68 -46 86 C-45.69177379 83.7077546 -45.37829126 81.41621545 -45.0625 79.125 C-44.80146484 77.21074219 -44.80146484 77.21074219 -44.53515625 75.2578125 C-44 72 -44 72 -43 70 C-44.01320313 70.05220703 -44.01320313 70.05220703 -45.046875 70.10546875 C-45.93890625 70.13253906 -46.8309375 70.15960938 -47.75 70.1875 C-49.07257813 70.23970703 -49.07257813 70.23970703 -50.421875 70.29296875 C-53.44671583 69.94923684 -54.75583602 68.99772541 -57 67 C-56.505 66.01 -56.505 66.01 -56 65 C-55.34 65.66 -54.68 66.32 -54 67 C-48.36795898 68.00125174 -43.25175667 67.67342694 -38.3125 64.6875 C-27.28929695 55.90405573 -21.87239829 42.29886653 -15.875 29.9375 C-14.14904457 26.40207517 -12.41692369 22.86973855 -10.6796875 19.33984375 C-10.27063171 18.50746185 -9.86157593 17.67507996 -9.44012451 16.81747437 C-6.57385109 11.03305357 -3.51893219 5.41901318 0 0 Z " fill="#DF290E" transform="translate(124,29)"/>
<path d="M0 0 C0.66 0.33 1.32 0.66 2 1 C1.525625 1.556875 1.05125 2.11375 0.5625 2.6875 C-1.12395996 5.18346074 -1.58953107 7.0446237 -2 10 C-0.02 9.01 1.96 8.02 4 7 C4.33 8.32 4.66 9.64 5 11 C5.680625 10.649375 6.36125 10.29875 7.0625 9.9375 C10.7087789 8.77379397 13.28489978 9.27154898 17 10 C16.51171875 16.0546875 16.51171875 16.0546875 16 18 C12.80884456 20.12743696 12.23143981 20.27598838 8.625 19.9375 C7.87476563 19.88464844 7.12453125 19.83179687 6.3515625 19.77734375 C4 19 4 19 -1 14 C-1.33 29.51 -1.66 45.02 -2 61 C-7.78254573 59.84349085 -8.15849554 59.08832013 -11.3125 54.4375 C-12.00988281 53.42558594 -12.70726562 52.41367188 -13.42578125 51.37109375 C-13.94527344 50.58863281 -14.46476562 49.80617187 -15 49 C-12.4345406 46.4345406 -10.52313332 46.45953913 -7 46 C-7.53109375 45.27554688 -8.0621875 44.55109375 -8.609375 43.8046875 C-12.17130784 38.92977941 -15.71404976 34.06583995 -19 29 C-19.5775 29.33 -20.155 29.66 -20.75 30 C-23 31 -23 31 -27 31 C-27 30.34 -27 29.68 -27 29 C-26.278125 28.62875 -25.55625 28.2575 -24.8125 27.875 C-19.88074929 24.58716619 -17.55992823 19.22505899 -15 14 C-14.34 14 -13.68 14 -13 14 C-13 13.34 -13 12.68 -13 12 C-11.948125 11.7215625 -11.948125 11.7215625 -10.875 11.4375 C-5.92862 8.96431 -3.0192559 4.52888385 0 0 Z " fill="#D92A10" transform="translate(67,67)"/>
<path d="M0 0 C1.04449911 3.13349732 0.93423645 3.98968256 0 7 C-0.66 7 -1.32 7 -2 7 C-2.433125 8.3921875 -2.433125 8.3921875 -2.875 9.8125 C-4 13 -4 13 -6 16 C-6 16.99 -6 17.98 -6 19 C-3.59373035 20.79952269 -1.2281898 22.41352703 1.3125 24 C2.68561755 24.87182067 4.05678312 25.74672487 5.42578125 26.625 C6.03848877 27.00914063 6.65119629 27.39328125 7.2824707 27.7890625 C9 29 9 29 12 32 C9.03 33.32 6.06 34.64 3 36 C3.76183594 36.50789063 4.52367188 37.01578125 5.30859375 37.5390625 C7.4498199 38.9665466 9.59041499 40.39497763 11.73046875 41.82421875 C13.74902916 43.16751403 15.77165481 44.5047505 17.80078125 45.83203125 C18.60902344 46.36183594 19.41726562 46.89164063 20.25 47.4375 C20.97703125 47.91058594 21.7040625 48.38367188 22.453125 48.87109375 C22.96359375 49.24363281 23.4740625 49.61617187 24 50 C24 50.33 24 50.66 24 51 C14.43 51 4.86 51 -5 51 C-6.60875 48.009375 -8.2175 45.01875 -9.875 41.9375 C-10.3788623 41.00929443 -10.88272461 40.08108887 -11.40185547 39.12475586 C-13.87863089 34.46823894 -15.78706051 30.13756553 -17 25 C-18.65 25 -20.3 25 -22 25 C-22.66 23.68 -23.32 22.36 -24 21 C-23.34 21.33 -22.68 21.66 -22 22 C-18.15562311 22.36267707 -15.83186758 22.5330797 -12.53125 20.41796875 C-9.58330695 17.60195525 -7.71921987 14.55326353 -5.8125 11 C-5.29913086 10.07574219 -5.29913086 10.07574219 -4.77539062 9.1328125 C-3.1125078 6.12347893 -1.50664493 3.09055371 0 0 Z " fill="#DE290D" transform="translate(33,77)"/>
<path d="M0 0 C2.52845528 1.26422764 2.76422764 2.52845528 4 5 C6.76452033 6.38226016 9.0461363 6.09525387 12.125 6.0625 C13.22070312 6.05347656 14.31640625 6.04445313 15.4453125 6.03515625 C16.28835937 6.02355469 17.13140625 6.01195313 18 6 C17.525625 6.94875 17.05125 7.8975 16.5625 8.875 C14.57242218 13.4465467 14.28773098 18.06888627 14 23 C14.66 23.33 15.32 23.66 16 24 C16.33 22.68 16.66 21.36 17 20 C17.33 20.99 17.66 21.98 18 23 C20.82115184 24.07009208 22.90544541 24 26 24 C26.33 24.99 26.66 25.98 27 27 C26.67 27.33 26.34 27.66 26 28 C27.98 28.66 29.96 29.32 32 30 C31.34 31.98 30.68 33.96 30 36 C20.1 36 10.2 36 0 36 C0 24.12 0 12.24 0 0 Z M20 25 C21 27 21 27 21 27 Z " fill="#D71206" transform="translate(65,92)"/>
<path d="M0 0 C0.66 0.99 1.32 1.98 2 3 C3.80671116 5.89400826 3.80671116 5.89400826 7 8 C13.06255836 8.83968952 18.40761411 8.55975016 24 6 C21.59380472 11.90611569 16.52561463 16.07467461 11 19 C7.10592709 19.67788503 3.96786346 19.58071807 0.5 17.5 C0.005 17.005 -0.49 16.51 -1 16 C-1.34833144 20.87664009 -0.41685712 23.77050005 2 28 C5.3 28 8.6 28 12 28 C11.375 30.8125 11.375 30.8125 10 34 C5.2 37 5.2 37 2 37 C1.01 39.475 1.01 39.475 0 42 C-2.80184038 39.7318435 -3.88181738 37.17763141 -5.171875 33.86328125 C-6.05722534 31.70334572 -6.05722534 31.70334572 -8.1875 28.9375 C-11.35339583 23.48921415 -10.77604322 17.04778513 -10 11 C-8.85613303 7.28712032 -7.58810393 3.93318446 -5 1 C-2.32421875 0.23828125 -2.32421875 0.23828125 0 0 Z " fill="#D6290F" transform="translate(10,49)"/>
<path d="M0 0 C1.32 0.33 2.64 0.66 4 1 C2.69240478 4.5348866 1.11260596 7.53148447 -0.9375 10.6875 C-3.95408051 15.59220914 -5.64798558 20.42590547 -7 26 C-6.236875 25.236875 -5.47375 24.47375 -4.6875 23.6875 C-2.79166667 21.79166667 -0.89583333 19.89583333 1 18 C-0.57570749 23.51497622 -3.16261926 29.57352198 -8 33 C-10.1875 32.6875 -10.1875 32.6875 -12 32 C-12.20818303 26.06678378 -11.73620116 23.07670404 -10 17 C-12.31 21.29 -14.62 25.58 -17 30 C-18.32 30 -19.64 30 -21 30 C-20.09276387 25.31261335 -19.0452733 20.65806256 -18 16 C-18.65355469 17.28583984 -18.65355469 17.28583984 -19.3203125 18.59765625 C-27.46341463 34.23170732 -27.46341463 34.23170732 -33 37 C-36.5 37.1875 -36.5 37.1875 -40 37 C-42 35 -42 35 -42.3125 31.6875 C-41.98354921 27.80588071 -41.35208803 26.04900301 -39 23 C-35.5647952 20.70986347 -34.014669 20.82157027 -30 21 C-29.67 21.99 -29.34 22.98 -29 24 C-29.78375 24.20625 -30.5675 24.4125 -31.375 24.625 C-34.30916286 25.80676612 -34.30916286 25.80676612 -35.3125 29.125 C-35.539375 30.07375 -35.76625 31.0225 -36 32 C-28.74591424 29.34606619 -24.82468656 23.70097094 -21.48046875 16.91796875 C-19.5101959 12.31309474 -17.84893004 7.94908153 -17 3 C-15.35 2.67 -13.7 2.34 -12 2 C-12 6.62 -12 11.24 -12 16 C-10.7625 14.288125 -9.525 12.57625 -8.25 10.8125 C-5.58784278 7.12984917 -2.86392794 3.52830761 0 0 Z " fill="#F8F0F0" transform="translate(51,63)"/>
<path d="M0 0 C14.41636002 -1.21971554 14.41636002 -1.21971554 18.17578125 1.67578125 C20.82483454 5.95021237 21 9.02608232 21 14 C20.67 14.99 20.34 15.98 20 17 C17.4375 18.1875 17.4375 18.1875 15 19 C14.34 17.35 13.68 15.7 13 14 C13.66 14 14.32 14 15 14 C14.01 13.01 13.02 12.02 12 11 C11.06213918 16.05009595 11.06213918 16.05009595 12 21 C12.66 21.33 13.32 21.66 14 22 C12.576875 22.0928125 12.576875 22.0928125 11.125 22.1875 C10.09375 22.455625 9.0625 22.72375 8 23 C6.54708727 25.46255685 6.54708727 25.46255685 6 28 C7.32 28 8.64 28 10 28 C10.33 27.34 10.66 26.68 11 26 C11.66 26 12.32 26 13 26 C13 26.66 13 27.32 13 28 C13.66 28 14.32 28 15 28 C15.33 26.68 15.66 25.36 16 24 C16.95595724 28.3018076 17.42543615 31.72369155 16 36 C15.01 35.67 14.02 35.34 13 35 C12.505 33.515 12.505 33.515 12 32 C12.66 32 13.32 32 14 32 C14 31.34 14 30.68 14 30 C13.01 30.33 12.02 30.66 11 31 C11.33 32.98 11.66 34.96 12 37 C10.35 36.67 8.7 36.34 7 36 C7 36.66 7 37.32 7 38 C8.32 38.33 9.64 38.66 11 39 C11.33 40.32 11.66 41.64 12 43 C9.37886292 43 7.49064888 42.68707555 5 42 C5.33 41.34 5.66 40.68 6 40 C5.90276549 38.00978479 5.90276549 38.00978479 5.5625 35.875 C5.376875 34.59625 5.19125 33.3175 5 32 C5.66 31.67 6.32 31.34 7 31 C7.66 31.33 8.32 31.66 9 32 C8.67 31.34 8.34 30.68 8 30 C7.01 30 6.02 30 5 30 C4.67 28.35 4.34 26.7 4 25 C3.01 24.67 2.02 24.34 1 24 C-0.29235715 19.08497242 -0.11135517 14.22709898 -0.0625 9.1875 C-0.05798828 8.30384766 -0.05347656 7.42019531 -0.04882812 6.50976562 C-0.03709866 4.33981441 -0.01916495 2.16989828 0 0 Z " fill="#C9240C" transform="translate(0,0)"/>
<path d="M0 0 C1 3 1 3 -0.15234375 5.8203125 C-5.18118605 15.12972298 -10.70360397 24.9861507 -21 29 C-26.01559131 29.67874811 -30.35619391 30.13500897 -34.625 27.1875 C-36.74277456 23.8183132 -37.11887306 21.20224105 -37.0625 17.3125 C-37.05347656 16.50425781 -37.04445313 15.69601563 -37.03515625 14.86328125 C-37.02355469 14.24839844 -37.01195313 13.63351563 -37 13 C-36.34 12.67 -35.68 12.34 -35 12 C-34.525625 12.804375 -34.05125 13.60875 -33.5625 14.4375 C-30.47242657 17.52757343 -28.70796407 18.009461 -24.44140625 18.26953125 C-19.97280879 17.77619809 -16.63167376 15.51805505 -13 13 C-12.0925 12.38125 -11.185 11.7625 -10.25 11.125 C-7.80222584 8.81321329 -6.04086823 6.39838137 -4.2109375 3.5859375 C-3 2 -3 2 0 0 Z " fill="#FBF8F8" transform="translate(102,68)"/>
<path d="M0 0 C0 13.2 0 26.4 0 40 C-1.98 38.68 -3.96 37.36 -6 36 C-6.99 35.67 -7.98 35.34 -9 35 C-13.0324079 28.62955279 -12.64566563 22.29772069 -12 15 C-11.28773055 12.28333128 -10.40003118 10.47697824 -9 8 C-8.731875 7.278125 -8.46375 6.55625 -8.1875 5.8125 C-6.57812806 3.3560902 -3.12176564 0 0 0 Z " fill="#751407" transform="translate(128,37)"/>
<path d="M0 0 C1 1 1 1 1.3125 3.6875 C0.84968268 8.59336355 -1.58063719 11.58063719 -5 15 C-7.625 15.125 -7.625 15.125 -10 15 C-8.02 15.99 -6.04 16.98 -4 18 C-8.80366745 21.94586969 -12.77839336 22.55550059 -19 22 C-21.5 20.375 -21.5 20.375 -23 18 C-23.10024907 13.48879181 -21.40149798 10.2387568 -18.71484375 6.75 C-13.3641638 1.28962501 -7.56147911 -2.41323801 0 0 Z " fill="#D92F13" transform="translate(116,29)"/>
<path d="M0 0 C2 2 2 2 2.375 4.75 C1.89768801 8.88670393 0.71339532 10.85817384 -2 14 C-5.25 15.375 -5.25 15.375 -8 16 C-5.525 16.99 -5.525 16.99 -3 18 C-5.58344252 20.82948466 -7.49391356 21.89503774 -11.41015625 22.16796875 C-12.28542969 22.17441406 -13.16070313 22.18085937 -14.0625 22.1875 C-15.37927734 22.20876953 -15.37927734 22.20876953 -16.72265625 22.23046875 C-19 22 -19 22 -21 20 C-21.64048895 15.87240456 -21.87953496 13.44160464 -19.6796875 9.8359375 C-14.30541595 3.40127157 -8.81178022 -1.03668003 0 0 Z " fill="#D1270E" transform="translate(40,31)"/>
<path d="M0 0 C2.81413532 3.43757453 4.7425383 7.22042782 6.6875 11.1875 C7.16799805 12.14946289 7.16799805 12.14946289 7.65820312 13.13085938 C10 17.85939166 10 17.85939166 10 19 C0.76 19 -8.48 19 -18 19 C-18 13.72 -18 8.44 -18 3 C-13 7 -13 7 -10.875 10.25 C-9.946875 11.61125 -9.946875 11.61125 -9 13 C-8.01 13 -7.02 13 -6 13 C-6.845625 12.071875 -7.69125 11.14375 -8.5625 10.1875 C-10.00390625 8.60546875 -10.00390625 8.60546875 -11 7 C-10.67 6.01 -10.34 5.02 -10 4 C-6.9375 2.8125 -6.9375 2.8125 -4 2 C-3.34 2.66 -2.68 3.32 -2 4 C-1.34 2.68 -0.68 1.36 0 0 Z " fill="#D81105" transform="translate(18,109)"/>
<path d="M0 0 C1.20995254 0.89364515 2.41786111 1.79005779 3.625 2.6875 C4.35332031 3.22890625 5.08164062 3.7703125 5.83203125 4.328125 C7.7375368 5.79759595 9.52235407 7.3322306 11.3125 8.9375 C12.199375 9.618125 13.08625 10.29875 14 11 C14.99 10.67 15.98 10.34 17 10 C17.020625 10.680625 17.04125 11.36125 17.0625 12.0625 C18.46887896 16.46915407 21.6309507 18.94762374 25 22 C21.61650042 23.96408024 18.47814132 24.55915407 14.625 25.125 C13.52414063 25.29257812 12.42328125 25.46015625 11.2890625 25.6328125 C8.15901977 25.9822472 5.14608144 26.06653344 2 26 C1.66205529 22.97961911 1.32951567 19.95880244 1 16.9375 C0.90460937 16.08994141 0.80921875 15.24238281 0.7109375 14.36914062 C0.18943842 9.54527411 -0.10532727 4.85163736 0 0 Z " fill="#E02B0D" transform="translate(50,9)"/>
<path d="M0 0 C7.26 0 14.52 0 22 0 C22.33 2.31 22.66 4.62 23 7 C23.2475 8.2375 23.2475 8.2375 23.5 9.5 C24.13461272 12.67306358 24.69583166 15.77581556 25 19 C24.34 19.66 23.68 20.32 23 21 C22.67 20.34 22.34 19.68 22 19 C21.01 19 20.02 19 19 19 C18.67 18.34 18.34 17.68 18 17 C16.68 17 15.36 17 14 17 C13.34 16.01 12.68 15.02 12 14 C11.34 15.32 10.68 16.64 10 18 C8.82479354 16.40207898 7.66008753 14.79643092 6.5 13.1875 C5.8503125 12.29417969 5.200625 11.40085937 4.53125 10.48046875 C3 8 3 8 3 5 C2.01 4.67 1.02 4.34 0 4 C0 2.68 0 1.36 0 0 Z " fill="#D9270D" transform="translate(83,0)"/>
<path d="M0 0 C1.24546405 2.49092811 0.7767578 3.41080733 0 6 C0.99 6 1.98 6 3 6 C2.73958333 7.98567708 2.47916667 9.97135417 2.21875 11.95703125 C1.946767 14.15471706 1.946767 14.15471706 2 17 C0.68 17.33 -0.64 17.66 -2 18 C-2.6875 16.3125 -2.6875 16.3125 -3 14 C-1.5625 11.25 -1.5625 11.25 0 9 C-0.66 9 -1.32 9 -2 9 C-2.99 11.97 -3.98 14.94 -5 18 C-5.67546875 18.06058594 -6.3509375 18.12117188 -7.046875 18.18359375 C-7.93890625 18.26738281 -8.8309375 18.35117188 -9.75 18.4375 C-10.63171875 18.51871094 -11.5134375 18.59992188 -12.421875 18.68359375 C-14.69578548 18.96266458 -16.78769705 19.42768685 -19 20 C-19.66 20 -20.32 20 -21 20 C-22.33783393 20.31478446 -23.67203709 20.64587656 -25 21 C-25.125 16.25 -25.125 16.25 -24 14 C-24.53109375 14.6496875 -25.0621875 15.299375 -25.609375 15.96875 C-26.31578125 16.8040625 -27.0221875 17.639375 -27.75 18.5 C-28.44609375 19.3353125 -29.1421875 20.170625 -29.859375 21.03125 C-32 23 -32 23 -36 23 C-36 23.66 -36 24.32 -36 25 C-36.66 25 -37.32 25 -38 25 C-37.78520698 18.87839891 -36.63563563 15.82604211 -32.5703125 11.25 C-31 10 -31 10 -28 10 C-28.33 11.65 -28.66 13.3 -29 15 C-29.99 15 -30.98 15 -32 15 C-32.33 16.32 -32.66 17.64 -33 19 C-29.60606022 17.59561113 -27.91654773 16.13616902 -26 13 C-25.27648573 11.01985568 -24.59734611 9.02178685 -24 7 C-23.34 7 -22.68 7 -22 7 C-21.67 7.66 -21.34 8.32 -21 9 C-20.34 9 -19.68 9 -19 9 C-19.66 11.64 -20.32 14.28 -21 17 C-20.57589844 16.36191406 -20.15179688 15.72382812 -19.71484375 15.06640625 C-14.98129292 8.39782145 -14.98129292 8.39782145 -11.9765625 7.1796875 C-10.0625 6.9375 -10.0625 6.9375 -7 7 C-7.66 9.64 -8.32 12.28 -9 15 C-6.37877071 11.13056629 -5.08312691 7.34648007 -3.84375 2.890625 C-3.5653125 2.26671875 -3.286875 1.6428125 -3 1 C-2.01 0.67 -1.02 0.34 0 0 Z " fill="#ECD3D1" transform="translate(90,56)"/>
<path d="M0 0 C0.33 0 0.66 0 1 0 C1 10.23 1 20.46 1 31 C-5.27 31 -11.54 31 -18 31 C-16.35044336 26.87610839 -14.64571626 23.57541931 -12.33984375 19.82421875 C-11.9899086 19.25419632 -11.63997345 18.68417389 -11.2794342 18.09687805 C-10.5442374 16.90154357 -9.80709863 15.70740153 -9.06811523 14.5144043 C-7.9322815 12.67906769 -6.80465275 10.83886792 -5.67773438 8.99804688 C-4.96142003 7.83564001 -4.24463985 6.67352005 -3.52734375 5.51171875 C-2.54882446 3.92556763 -2.54882446 3.92556763 -1.55053711 2.30737305 C-0.78302124 1.16522339 -0.78302124 1.16522339 0 0 Z " fill="#E0280D" transform="translate(127,97)"/>
<path d="M0 0 C6.93 0 13.86 0 21 0 C21.33 1.65 21.66 3.3 22 5 C21.01 5 20.02 5 19 5 C16.75152907 5.83895402 16.75152907 5.83895402 16.125 8.375 C14.86499529 11.31501099 13.66110125 12.31463588 11 14 C11.99 14.33 12.98 14.66 14 15 C13.814375 15.804375 13.62875 16.60875 13.4375 17.4375 C13.2209375 18.7059375 13.2209375 18.7059375 13 20 C14.05270463 21.15811388 14.05270463 21.15811388 16 22 C16 23.32 16 24.64 16 26 C14.02 26.99 12.04 27.98 10 29 C9.01 28.34 8.02 27.68 7 27 C7 25.68 7 24.36 7 23 C6.34 22.67 5.68 22.34 5 22 C4.34 21.01 3.68 20.02 3 19 C2.34 18.67 1.68 18.34 1 18 C1.99 17.67 2.98 17.34 4 17 C3.79375 16.05125 3.5875 15.1025 3.375 14.125 C3.25125 13.09375 3.1275 12.0625 3 11 C3.66 10.34 4.32 9.68 5 9 C4.54625 8.62875 4.0925 8.2575 3.625 7.875 C2 6 2 6 0 0 Z " fill="#C21307" transform="translate(16,0)"/>
<path d="M0 0 C1.21652762 2.87853191 1.01685874 3.9560662 -0.12402344 6.92919922 C-0.69668945 8.04311035 -1.26935547 9.15702148 -1.859375 10.3046875 C-2.16441956 10.90628693 -2.46946411 11.50788635 -2.78375244 12.12771606 C-3.76136307 14.04941231 -4.7552798 15.96211358 -5.75 17.875 C-6.40474921 19.15438384 -7.05840724 20.43432674 -7.7109375 21.71484375 C-8.92005226 24.08419188 -10.13654575 26.4491492 -11.35839844 28.81201172 C-11.90012695 29.86404785 -12.44185547 30.91608398 -13 32 C-13.57395508 33.08385986 -14.14791016 34.16771973 -14.73925781 35.28442383 C-16.17829359 38.38403556 -15.88401958 38.8875144 -15 42 C-17.55377872 51.19094321 -22.76813937 60.76747077 -31 66 C-31.99 66 -32.98 66 -34 66 C-34.36275695 61.52599758 -34.36275695 61.52599758 -32.75 59.1875 C-31 58 -31 58 -27 58 C-28.25541557 55.48916886 -29.50063488 55.12874554 -32 54 C-30.515 53.505 -30.515 53.505 -29 53 C-28.67 51.68 -28.34 50.36 -28 49 C-30.97 49 -33.94 49 -37 49 C-37 48.01 -37 47.02 -37 46 C-35.80375 46.0825 -34.6075 46.165 -33.375 46.25 C-28.81248256 46.2178696 -26.50107619 45.04441408 -23 42 C-17.24861067 35.6420652 -13.60732026 27.89756744 -9.76635742 20.31665039 C-8.67930473 18.17132645 -7.58183615 16.03158955 -6.48242188 13.89257812 C-5.78325364 12.52634882 -5.08466459 11.15982292 -4.38671875 9.79296875 C-4.06072189 9.15546188 -3.73472504 8.51795502 -3.39884949 7.86112976 C-2.08319005 5.26122994 -0.92319682 2.76959047 0 0 Z " fill="#D92C12" transform="translate(49,29)"/>
<path d="M0 0 C0.33 0.66 0.66 1.32 1 2 C1.639375 2.12375 2.27875 2.2475 2.9375 2.375 C5 3 5 3 6.25 5.0625 C6.4975 5.701875 6.745 6.34125 7 7 C4.96692639 8.08914658 3.29241364 8.95431037 1 9.3125 C-2.20401763 10.41388106 -3.21983649 12.15173838 -5 15 C-5.88508717 17.96852271 -6.49426661 20.94563651 -7 24 C-3.45481116 22.60240095 -3.45481116 22.60240095 0 21 C0.33 21.99 0.66 22.98 1 24 C2.65 23.67 4.3 23.34 6 23 C6 24.65 6 26.3 6 28 C5.39696045 28.2582959 4.7939209 28.5165918 4.17260742 28.78271484 C1.79693847 30.11377287 0.79004159 31.26470564 -0.76171875 33.4765625 C-1.24060547 34.146875 -1.71949219 34.8171875 -2.21289062 35.5078125 C-2.69951172 36.20648438 -3.18613281 36.90515625 -3.6875 37.625 C-5.43514007 40.10289588 -7.20233445 42.55755193 -9 45 C-9.33 45 -9.66 45 -10 45 C-9.67 40.05 -9.34 35.1 -9 30 C-10.65 30.33 -12.3 30.66 -14 31 C-14.495 32.485 -14.495 32.485 -15 34 C-16 31 -16 31 -14.86010742 28.24438477 C-14.28107666 27.15440186 -13.7020459 26.06441895 -13.10546875 24.94140625 C-12.79805252 24.35584457 -12.49063629 23.7702829 -12.17390442 23.16697693 C-11.18777994 21.29370377 -10.18797283 19.42814271 -9.1875 17.5625 C-8.52446224 16.30973571 -7.86234182 15.05648545 -7.20117188 13.80273438 C-5.98250079 11.49366629 -4.7575709 9.18837774 -3.52807617 6.88500977 C-2.31978916 4.60376234 -1.14017453 2.31574951 0 0 Z " fill="#BE1F15" transform="translate(48,35)"/>
<path d="M0 0 C3.79160297 -0.05786668 7.58309311 -0.09355054 11.375 -0.125 C12.45523438 -0.14175781 13.53546875 -0.15851562 14.6484375 -0.17578125 C15.6796875 -0.18222656 16.7109375 -0.18867187 17.7734375 -0.1953125 C19.20308838 -0.21102295 19.20308838 -0.21102295 20.66162109 -0.22705078 C23 0 23 0 25 2 C25.125 5.625 25.125 5.625 25 9 C24.34 9 23.68 9 23 9 C21.47700477 11.93720508 20.19899698 14.9168649 19 18 C13.86522321 14.51305989 9.37490474 10.5680892 5 6.1875 C4.26076294 5.44922974 4.26076294 5.44922974 3.5065918 4.69604492 C0 1.13492404 0 1.13492404 0 0 Z " fill="#F67D03" transform="translate(42,0)"/>
<path d="M0 0 C1 3 1 3 -0.4375 6 C-0.953125 6.99 -1.46875 7.98 -2 9 C-2 9.99 -2 10.98 -2 12 C-0.68 11.67 0.64 11.34 2 11 C2.12375 10.113125 2.2475 9.22625 2.375 8.3125 C2.94412736 5.29612498 3.76614436 2.79673946 5 0 C5.33 0 5.66 0 6 0 C6.33820166 1.5823006 6.67035939 3.16589375 7 4.75 C7.185625 5.63171875 7.37125 6.5134375 7.5625 7.421875 C8 10 8 10 8 14 C8.66 14 9.32 14 10 14 C10 14.66 10 15.32 10 16 C9.01 16 8.02 16 7 16 C6.82984375 16.83144531 6.6596875 17.66289063 6.484375 18.51953125 C6.12085938 20.14955078 6.12085938 20.14955078 5.75 21.8125 C5.40195313 23.43091797 5.40195313 23.43091797 5.046875 25.08203125 C3.89021838 28.3059958 2.90349865 29.29029522 0 31 C0.165 30.05125 0.33 29.1025 0.5 28.125 C1.0526635 25.19831099 1.0526635 25.19831099 1 23 C0.29875 22.773125 -0.4025 22.54625 -1.125 22.3125 C-4.74128535 20.66158712 -7.08769976 18.7091165 -10 16 C-10 15.34 -10 14.68 -10 14 C-8.68 14 -7.36 14 -6 14 C-5.938125 13.175 -5.87625 12.35 -5.8125 11.5 C-4.76703783 6.99647063 -2.59542785 3.77342647 0 0 Z " fill="#E6710A" transform="translate(80,41)"/>
<path d="M0 0 C0.66 0.33 1.32 0.66 2 1 C2 1.66 2 2.32 2 3 C4.89234315 3.82638376 6.88742431 4 10 4 C10.33 4.99 10.66 5.98 11 7 C10.67 7.33 10.34 7.66 10 8 C11.98 8.66 13.96 9.32 16 10 C15.34 11.98 14.68 13.96 14 16 C7.73 16 1.46 16 -5 16 C-4.67 11.71 -4.34 7.42 -4 3 C-2.02 3.495 -2.02 3.495 0 4 C0 2.68 0 1.36 0 0 Z M4 5 C5 7 5 7 5 7 Z " fill="#DA280D" transform="translate(81,112)"/>
<path d="M0 0 C2 3 2 3 2 5 C3.37485532 6.54166642 3.37485532 6.54166642 5 8 C5.66 8.66 6.32 9.32 7 10 C7.99 10.33 8.98 10.66 10 11 C9.67 11.66 9.34 12.32 9 13 C8.01 13.33 7.02 13.66 6 14 C6.33 16.64 6.66 19.28 7 22 C7.66 21.67 8.32 21.34 9 21 C9.625 22.8125 9.625 22.8125 10 25 C9.34 25.99 8.68 26.98 8 28 C7.34 28 6.68 28 6 28 C5.9175 28.845625 5.835 29.69125 5.75 30.5625 C4.84266147 34.72113491 3.23458727 37.39582699 1 41 C0.67 41 0.34 41 0 41 C0 27.47 0 13.94 0 0 Z " fill="#D61E0E" transform="translate(0,19)"/>
<path d="M0 0 C0.53753906 0.32484375 1.07507813 0.6496875 1.62890625 0.984375 C4.54106689 2.23175847 6.7764124 2.26594496 9.9375 2.25 C10.95714844 2.25515625 11.97679688 2.2603125 13.02734375 2.265625 C16.05332204 1.99523535 18.25825647 1.27241136 21 0 C18.59380472 5.90611569 13.52561463 10.07467461 8 13 C4.24635443 13.65343927 1.06425832 13.56013596 -2.375 11.75 C-4.06314804 9.93199442 -5.05427475 8.28550269 -6 6 C-5.38125 5.7525 -4.7625 5.505 -4.125 5.25 C-1.64931313 3.79371361 -1.04874998 2.62187494 0 0 Z " fill="#DB2B10" transform="translate(13,55)"/>
<path d="M0 0 C0.36351562 0.70125 0.72703125 1.4025 1.1015625 2.125 C4.3000908 8.161197 7.70534916 13.68498886 12 19 C10.21411133 19.61962891 10.21411133 19.61962891 8 20 C5.40660046 18.55100824 3.0944799 17.0877964 0.6875 15.375 C0.04876953 14.93542969 -0.58996094 14.49585937 -1.24804688 14.04296875 C-3.17652116 12.71042623 -5.0902965 11.35928527 -7 10 C-7.67337402 9.52079102 -8.34674805 9.04158203 -9.04052734 8.54785156 C-10.69529161 7.3674836 -12.34787467 6.18405878 -14 5 C-11.96470413 2.96470413 -10.76582618 2.3615728 -8.125 1.375 C-7.10792969 0.98441406 -7.10792969 0.98441406 -6.0703125 0.5859375 C-4 0 -4 0 0 0 Z " fill="#F17502" transform="translate(49,108)"/>
<path d="M0 0 C0.99 0 1.98 0 3 0 C4.23920252 2.47840505 4.30731035 4.46203224 4.53515625 7.2265625 C4.62216797 8.2578125 4.70917969 9.2890625 4.79882812 10.3515625 C4.88583984 11.43179688 4.97285156 12.51203125 5.0625 13.625 C5.15337891 14.71296875 5.24425781 15.8009375 5.33789062 16.921875 C5.56225951 19.61430157 5.78280114 22.30698709 6 25 C5.01 25 4.02 25 3 25 C1.17578125 22.8125 1.17578125 22.8125 -0.6875 20 C-1.31011719 19.071875 -1.93273438 18.14375 -2.57421875 17.1875 C-3.04472656 16.465625 -3.51523437 15.74375 -4 15 C-4.5775 15.33 -5.155 15.66 -5.75 16 C-8 17 -8 17 -12 17 C-12 16.34 -12 15.68 -12 15 C-11.278125 14.62875 -10.55625 14.2575 -9.8125 13.875 C-4.88074929 10.58716619 -2.55992823 5.22505899 0 0 Z " fill="#CD1508" transform="translate(52,81)"/>
<path d="M0 0 C-0.50797009 4.3177458 -1.19682779 8.03302114 -3 12 C-2.34 12.33 -1.68 12.66 -1 13 C-1.99 14.485 -1.99 14.485 -3 16 C-3.78375 15.79375 -4.5675 15.5875 -5.375 15.375 C-6.24125 15.25125 -7.1075 15.1275 -8 15 C-8.66 15.66 -9.32 16.32 -10 17 C-11.32 17 -12.64 17 -14 17 C-14.4589303 11.26337126 -13.57654928 8.49623338 -10 4 C-9.2884375 3.1028125 -9.2884375 3.1028125 -8.5625 2.1875 C-5.98007928 0.22486025 -3.17588329 0 0 0 Z " fill="#F6EBEA" transform="translate(55,42)"/>
<path d="M0 0 C0.33 0.99 0.66 1.98 1 3 C0.21625 3.20625 -0.5675 3.4125 -1.375 3.625 C-4.30916286 4.80676612 -4.30916286 4.80676612 -5.3125 8.125 C-5.539375 9.07375 -5.76625 10.0225 -6 11 C-1.86873527 9.07848152 1.53258866 6.95749791 5 4 C5.33 4.66 5.66 5.32 6 6 C5.06862408 7.29608947 4.1296434 8.58671632 3.1875 9.875 C2.66542969 10.59429687 2.14335937 11.31359375 1.60546875 12.0546875 C0 14 0 14 -3 16 C-6.5625 16.25 -6.5625 16.25 -10 16 C-12 14 -12 14 -12.3125 10.6875 C-11.98354921 6.80588071 -11.35208803 5.04900301 -9 2 C-5.5647952 -0.29013653 -4.014669 -0.17842973 0 0 Z " fill="#FAF5F5" transform="translate(21,84)"/>
<path d="M0 0 C0.495 0.99 0.495 0.99 1 2 C-0.012849 4.31053178 -1.08573482 6.48899937 -2.26953125 8.7109375 C-2.62129929 9.38693497 -2.97306732 10.06293243 -3.335495 10.75941467 C-4.48695658 12.96864523 -5.64935855 15.17189948 -6.8125 17.375 C-8.39484329 20.39300914 -9.97296304 23.41321699 -11.55078125 26.43359375 C-12.13516464 27.54937553 -12.13516464 27.54937553 -12.73135376 28.68769836 C-15.36542929 33.7324112 -17.87311033 38.82556309 -20.31762695 43.96508789 C-25.25797161 54.29564134 -31.58120374 65.82084721 -43 70 C-47.52655896 70.69850078 -51.38946977 71.07368682 -55.296875 68.46875 C-55.85890625 67.9840625 -56.4209375 67.499375 -57 67 C-56.505 66.01 -56.505 66.01 -56 65 C-55.34 65.66 -54.68 66.32 -54 67 C-48.36795898 68.00125174 -43.25175667 67.67342694 -38.3125 64.6875 C-27.28929695 55.90405573 -21.87239829 42.29886653 -15.875 29.9375 C-14.14904457 26.40207517 -12.41692369 22.86973855 -10.6796875 19.33984375 C-10.27063171 18.50746185 -9.86157593 17.67507996 -9.44012451 16.81747437 C-6.57385109 11.03305357 -3.51893219 5.41901318 0 0 Z " fill="#4F4242" transform="translate(124,29)"/>
<path d="M0 0 C0.66 0 1.32 0 2 0 C2 0.66 2 1.32 2 2 C2.680625 1.649375 3.36125 1.29875 4.0625 0.9375 C7.7087789 -0.22620603 10.28489978 0.27154898 14 1 C13.51171875 7.0546875 13.51171875 7.0546875 13 9 C9.23241373 11.51172418 7.49251703 11.14262063 3.16796875 10.54296875 C0.10858985 9.77674593 -1.32786351 8.66021715 -3 6 C-2.82246387 2.98188578 -2.16264785 2.16264785 0 0 Z " fill="#D9180D" transform="translate(70,76)"/>
<path d="M0 0 C1.24546405 2.49092811 0.7767578 3.41080733 0 6 C0.99 6 1.98 6 3 6 C2.73958333 7.98567708 2.47916667 9.97135417 2.21875 11.95703125 C1.946767 14.15471706 1.946767 14.15471706 2 17 C0.68 17.33 -0.64 17.66 -2 18 C-2.6875 16.3125 -2.6875 16.3125 -3 14 C-1.5625 11.25 -1.5625 11.25 0 9 C-0.66 9 -1.32 9 -2 9 C-2.99 11.97 -3.98 14.94 -5 18 C-11.0546875 18.9765625 -11.0546875 18.9765625 -13 19 C-13.66 18.34 -14.32 17.68 -15 17 C-13.35 14.03 -11.7 11.06 -10 8 C-9.01 8 -8.02 8 -7 8 C-7.66 10.31 -8.32 12.62 -9 15 C-6.37877071 11.13056629 -5.08312691 7.34648007 -3.84375 2.890625 C-3.5653125 2.26671875 -3.286875 1.6428125 -3 1 C-2.01 0.67 -1.02 0.34 0 0 Z " fill="#F6EDEA" transform="translate(90,56)"/>
<path d="M0 0 C0.33 0 0.66 0 1 0 C1 9.9 1 19.8 1 30 C-6.17647059 24.01960784 -6.17647059 24.01960784 -7 21 C-6.47971142 15.98293151 -4.86122193 11.7312205 -2.9375 7.125 C-2.65583984 6.43664063 -2.37417969 5.74828125 -2.08398438 5.0390625 C-1.39484734 3.35710091 -0.69819202 1.67822303 0 0 Z " fill="#680A04" transform="translate(127,47)"/>
<path d="M0 0 C1.32 0 2.64 0 4 0 C3.44854729 5.23880078 2.57077907 9.97350697 1 15 C-0.32 15.33 -1.64 15.66 -3 16 C-3.6875 14.375 -3.6875 14.375 -4 12 C-2.5625 8.75 -2.5625 8.75 -1 6 C-1.33 5.67 -1.66 5.34 -2 5 C-3.65 8.96 -5.3 12.92 -7 17 C-8.32 17 -9.64 17 -11 17 C-9.90301833 11.30860098 -8.45946923 6.25432063 -6 1 C-5.38125 1.20625 -4.7625 1.4125 -4.125 1.625 C-3.073125 1.810625 -3.073125 1.810625 -2 2 C-1.34 1.34 -0.68 0.68 0 0 Z " fill="#F5F0EC" transform="translate(81,38)"/>
<path d="M0 0 C1.32 0.33 2.64 0.66 4 1 C3.505 2.03125 3.01 3.0625 2.5 4.125 C1.00709749 7.54826018 0.91301055 10.25945355 1 14 C-1 16 -1 16 -3.3125 16.0625 C-4.199375 16.041875 -5.08625 16.02125 -6 16 C-7.67343448 16.29749946 -9.34305915 16.62127066 -11 17 C-12.16161779 14.13421241 -11.9946154 12.98369837 -11.00390625 9.984375 C-10.52824219 8.91703125 -10.05257812 7.8496875 -9.5625 6.75 C-9.08941406 5.67234375 -8.61632813 4.5946875 -8.12890625 3.484375 C-7.75636719 2.66453125 -7.38382813 1.8446875 -7 1 C-5.68 1 -4.36 1 -3 1 C-3.99 4.63 -4.98 8.26 -6 12 C-5.38125 10.7625 -4.7625 9.525 -4.125 8.25 C-2.75 5.5 -1.375 2.75 0 0 Z " fill="#F8EEE9" transform="translate(67,40)"/>
<path d="M0 0 C2 2 2 2 2.125 5.125 C2.08375 6.07375 2.0425 7.0225 2 8 C0.68 8.33 -0.64 8.66 -2 9 C-2.33 8.34 -2.66 7.68 -3 7 C-3.99 7.495 -3.99 7.495 -5 8 C-7.125 7.5625 -7.125 7.5625 -9 7 C-9.33 8.32 -9.66 9.64 -10 11 C-10.33 10.67 -10.66 10.34 -11 10 C-11.99 11.485 -11.99 11.485 -13 13 C-13.33 11.68 -13.66 10.36 -14 9 C-14.66 9 -15.32 9 -16 9 C-17.32 11.31 -18.64 13.62 -20 16 C-20.6875 14.25 -20.6875 14.25 -21 12 C-16.42664452 4.29750656 -9.14752283 -1.07617916 0 0 Z " fill="#BF180E" transform="translate(40,31)"/>
<path d="M0 0 C4.5945048 0.54554417 7.52533644 2.41048646 11.3125 5 C12.38113281 5.721875 13.44976562 6.44375 14.55078125 7.1875 C15.35902344 7.785625 16.16726562 8.38375 17 9 C17 9.33 17 9.66 17 10 C8.75 10 0.5 10 -8 10 C-7.34 9.67 -6.68 9.34 -6 9 C-5.67 8.01 -5.34 7.02 -5 6 C-2.4375 4.8125 -2.4375 4.8125 0 4 C0 2.68 0 1.36 0 0 Z " fill="#DD290D" transform="translate(40,118)"/>
<path d="M0 0 C-0.33 0.66 -0.66 1.32 -1 2 C-2.175625 2.0825 -3.35125 2.165 -4.5625 2.25 C-10.5753826 2.84479954 -14.83143475 6.46577504 -18.66796875 10.94921875 C-20.2754648 13.1808919 -20.2754648 13.1808919 -21 17 C-17.7 17 -14.4 17 -11 17 C-10.67 16.34 -10.34 15.68 -10 15 C-8.02 15.99 -6.04 16.98 -4 18 C-8.80366745 21.94586969 -12.77839336 22.55550059 -19 22 C-21.5 20.375 -21.5 20.375 -23 18 C-23.10024907 13.48879181 -21.40149798 10.2387568 -18.71484375 6.75 C-13.32435624 1.24900136 -7.6111317 -2.31643139 0 0 Z " fill="#CD381B" transform="translate(116,29)"/>
<path d="M0 0 C1.04449911 3.13349732 0.93423645 3.98968256 0 7 C-0.66 7 -1.32 7 -2 7 C-2.433125 8.3921875 -2.433125 8.3921875 -2.875 9.8125 C-4 13 -4 13 -6 16 C-6 16.99 -6 17.98 -6 19 C-3.55503957 20.71711243 -3.55503957 20.71711243 -1 22 C-1.923653 26.09046327 -2.37573993 26.58382662 -6 29 C-6.66 27.68 -7.32 26.36 -8 25 C-12.62 25 -17.24 25 -22 25 C-22.66 23.68 -23.32 22.36 -24 21 C-23.34 21.33 -22.68 21.66 -22 22 C-18.15562311 22.36267707 -15.83186758 22.5330797 -12.53125 20.41796875 C-9.58330695 17.60195525 -7.71921987 14.55326353 -5.8125 11 C-5.29913086 10.07574219 -5.29913086 10.07574219 -4.77539062 9.1328125 C-3.1125078 6.12347893 -1.50664493 3.09055371 0 0 Z " fill="#933729" transform="translate(33,77)"/>
<path d="M0 0 C0.66 0 1.32 0 2 0 C1.67 0.763125 1.34 1.52625 1 2.3125 C-0.17436686 4.99069135 -0.17436686 4.99069135 0 8 C1.97536745 7.65213292 1.97536745 7.65213292 4 7 C4.33 6.34 4.66 5.68 5 5 C5.66 5.33 6.32 5.66 7 6 C6.690625 6.7425 6.38125 7.485 6.0625 8.25 C4.95426285 10.82924253 4.95426285 10.82924253 4.6875 13 C3.74893074 15.73038331 2.40923421 16.33758045 -0.0625 17.75 C-0.79597656 18.17796875 -1.52945313 18.6059375 -2.28515625 19.046875 C-2.85105469 19.36140625 -3.41695312 19.6759375 -4 20 C-4.87840996 16.90279155 -4.99435406 15.09354597 -4 12 C-10.08408472 11.80185739 -10.08408472 11.80185739 -16 13 C-16 12.34 -16 11.68 -16 11 C-7.6875 7.4375 -7.6875 7.4375 -3 9 C-2.690625 7.88625 -2.38125 6.7725 -2.0625 5.625 C-1 2 -1 2 0 0 Z " fill="#B93921" transform="translate(88,65)"/>
<path d="M0 0 C4.29 0 8.58 0 13 0 C12.34 5.94 11.68 11.88 11 18 C7.70712306 14.70712306 5.35526918 11.95348756 3 8 C3 7.01 3 6.02 3 5 C2.01 4.67 1.02 4.34 0 4 C0 2.68 0 1.36 0 0 Z " fill="#DA1505" transform="translate(83,0)"/>
<path d="M0 0 C0.33 0 0.66 0 1 0 C1 5.61 1 11.22 1 17 C-4.78254573 15.84349085 -5.15849554 15.08832013 -8.3125 10.4375 C-9.00988281 9.42558594 -9.70726562 8.41367188 -10.42578125 7.37109375 C-10.94527344 6.58863281 -11.46476562 5.80617188 -12 5 C-10 3 -10 3 -8.125 2.91015625 C-6.70814522 3.01173224 -5.29147387 3.11589995 -3.875 3.22265625 C-3.25625 3.14917969 -2.6375 3.07570313 -2 3 C-1.34 2.01 -0.68 1.02 0 0 Z " fill="#D3260C" transform="translate(64,111)"/>
<path d="M0 0 C4.29996343 3.43997074 6.16106305 5.5523321 9 10 C9.5775 10.556875 10.155 11.11375 10.75 11.6875 C12 13 12 13 12 16 C8.04 16 4.08 16 0 16 C0 10.72 0 5.44 0 0 Z " fill="#D4250C" transform="translate(0,112)"/>
<path d="M0 0 C0.99 0.33 1.98 0.66 3 1 C2.67 2.65 2.34 4.3 2 6 C2.99 6 3.98 6 5 6 C6.70532323 4.05990478 6.70532323 4.05990478 8 2 C8.66 2.33 9.32 2.66 10 3 C10 2.34 10 1.68 10 1 C10.99 0.67 11.98 0.34 13 0 C12.45918025 3.79405854 11.01163146 5.15349396 8.0625 7.5 C4.48194632 10.35924432 2.46954452 12.57254343 1.5859375 17.140625 C1.51632813 17.83671875 1.44671875 18.5328125 1.375 19.25 C1.25125 20.4875 1.1275 21.725 1 23 C0.34 22.34 -0.32 21.68 -1 21 C-3.10820797 21.3185177 -3.10820797 21.3185177 -5 22 C-5 20.68 -5 19.36 -5 18 C-4.34 18 -3.68 18 -3 18 C-2.67 17.01 -2.34 16.02 -2 15 C-1.34 14.34 -0.68 13.68 0 13 C0 12.01 0 11.02 0 10 C-1.32 9.67 -2.64 9.34 -4 9 C-4 8.34 -4 7.68 -4 7 C-2.68 7 -1.36 7 0 7 C-0.2784375 5.824375 -0.2784375 5.824375 -0.5625 4.625 C-1 2 -1 2 0 0 Z " fill="#D82A0F" transform="translate(11,29)"/>
<path d="M0 0 C0.66 0 1.32 0 2 0 C2 0.66 2 1.32 2 2 C2.8353125 2.3403125 2.8353125 2.3403125 3.6875 2.6875 C6.63246684 4.35896766 8.68156544 6.55276352 11 9 C10.40703125 9.24492188 9.8140625 9.48984375 9.203125 9.7421875 C6.63301274 11.20952109 5.45470034 12.72292225 3.75 15.125 C3.22921875 15.84945312 2.7084375 16.57390625 2.171875 17.3203125 C1.78515625 17.87460938 1.3984375 18.42890625 1 19 C0 16 0 16 1.4375 12.8125 C1.953125 11.884375 2.46875 10.95625 3 10 C2.01 10.33 1.02 10.66 0 11 C0 10.01 0 9.02 0 8 C-0.99 8.33 -1.98 8.66 -3 9 C-3.33 7.02 -3.66 5.04 -4 3 C-3.01 2.67 -2.02 2.34 -1 2 C-0.67 1.34 -0.34 0.68 0 0 Z " fill="#CC1B10" transform="translate(68,55)"/>
<path d="M0 0 C1.1862052 2.84594454 1.02247076 3.93984522 -0.07641602 6.8815918 C-0.62998779 7.97640869 -1.18355957 9.07122559 -1.75390625 10.19921875 C-2.05183578 10.79370316 -2.34976532 11.38818756 -2.65672302 12.00068665 C-3.29095114 13.26008352 -3.93100687 14.51656003 -4.57641602 15.77026367 C-5.54698827 17.65734065 -6.49856261 19.55302371 -7.44726562 21.45117188 C-19.14594346 44.64588199 -19.14594346 44.64588199 -29 49 C-31.72140364 49.2335533 -34.25919213 49.13936311 -37 49 C-37 48.01 -37 47.02 -37 46 C-35.80375 46.0825 -34.6075 46.165 -33.375 46.25 C-28.81248256 46.2178696 -26.50107619 45.04441408 -23 42 C-17.24861067 35.6420652 -13.60732026 27.89756744 -9.76635742 20.31665039 C-8.67930473 18.17132645 -7.58183615 16.03158955 -6.48242188 13.89257812 C-5.78325364 12.52634882 -5.08466459 11.15982292 -4.38671875 9.79296875 C-4.06072189 9.15546188 -3.73472504 8.51795502 -3.39884949 7.86112976 C-2.08319005 5.26122994 -0.92319682 2.76959047 0 0 Z " fill="#563E3F" transform="translate(49,29)"/>
<path d="M0 0 C0.33 0 0.66 0 1 0 C1 4.95 1 9.9 1 15 C-2.63 15 -6.26 15 -10 15 C-7.90615322 11.1733145 -6.1534673 8.01636003 -3 5 C-1.99431758 3.33675599 -0.99335201 1.67063747 0 0 Z " fill="#DC1106" transform="translate(127,113)"/>
<path d="M0 0 C0.99 0 1.98 0 3 0 C4.75 2.1875 4.75 2.1875 6 5 C5.6875 7.8125 5.6875 7.8125 5 10 C1.7 10 -1.6 10 -5 10 C-4.49942848 5.61999924 -3.06806466 3.15830185 0 0 Z " fill="#F37C06" transform="translate(100,36)"/>
<path d="M0 0 C0.103125 0.639375 0.20625 1.27875 0.3125 1.9375 C0.6528125 2.9584375 0.6528125 2.9584375 1 4 C1.99 4.33 2.98 4.66 4 5 C0.67692308 9.8 0.67692308 9.8 -2.75 10.8125 C-3.4925 10.874375 -4.235 10.93625 -5 11 C-2.525 11.99 -2.525 11.99 0 13 C-0.33 13.66 -0.66 14.32 -1 15 C-3.9719385 13.87548273 -6.33440687 12.77706209 -9 11 C-7.97208168 7.91624505 -7.29893164 7.12209075 -5 5 C-4.484375 4.484375 -3.96875 3.96875 -3.4375 3.4375 C-2.29166667 2.29166667 -1.14583333 1.14583333 0 0 Z " fill="#BE251C" transform="translate(37,36)"/>
<path d="M0 0 C1.73293889 3.03790502 2.31075365 5.46125791 2.5625 8.9375 C2.78486803 11.73357213 3.05932386 14.25886776 3.6875 17 C3.790625 17.66 3.89375 18.32 4 19 C3.34 19.66 2.68 20.32 2 21 C1.67 20.34 1.34 19.68 1 19 C0.01 19 -0.98 19 -2 19 C-2.33 18.34 -2.66 17.68 -3 17 C-4.32 17 -5.64 17 -7 17 C-6.505 15.515 -6.505 15.515 -6 14 C-4.02 13.67 -2.04 13.34 0 13 C0.33 11.68 0.66 10.36 1 9 C0.34 8.67 -0.32 8.34 -1 8 C-0.67 5.36 -0.34 2.72 0 0 Z " fill="#D2270C" transform="translate(104,0)"/>
<path d="M0 0 C1.32 0.33 2.64 0.66 4 1 C2.02 4.63 0.04 8.26 -2 12 C-3.32 11.67 -4.64 11.34 -6 11 C-6.99 11 -7.98 11 -9 11 C-7.56111673 8.12223347 -5.2675702 6.2675702 -3 4 C-1.97186389 2.68824014 -0.95915568 1.3630107 0 0 Z " fill="#D0B3B3" transform="translate(76,64)"/>
<path d="M0 0 C0.33 0.66 0.66 1.32 1 2 C1.639375 2.12375 2.27875 2.2475 2.9375 2.375 C5 3 5 3 6.25 5.0625 C6.4975 5.701875 6.745 6.34125 7 7 C4.99574331 8.07370894 3.3201714 8.94835945 1.0625 9.3125 C-2.07928735 10.35976245 -3.79302275 12.60910798 -6 15 C-5.39644592 11.14974121 -4.23227397 8.13898841 -2.4375 4.6875 C-1.98246094 3.80449219 -1.52742188 2.92148437 -1.05859375 2.01171875 C-0.53458984 1.01591797 -0.53458984 1.01591797 0 0 Z " fill="#D0200D" transform="translate(48,35)"/>
<path d="M0 0 C4.81429916 2.40714958 6.6345082 4.86962371 10 9 C6.7 9.33 3.4 9.66 0 10 C0 6.7 0 3.4 0 0 Z " fill="#DD1505" transform="translate(65,23)"/>
<path d="M0 0 C1.35021971 4.05065914 0.45904548 7.11865571 -1 11 C-2.48386614 13.61396287 -4.05821139 15.66985367 -6 18 C-6.66 18 -7.32 18 -8 18 C-7.45960463 13.44041411 -6.26620958 10.16970963 -4 6.1875 C-3.46375 5.23230469 -2.9275 4.27710937 -2.375 3.29296875 C-1 1 -1 1 0 0 Z " fill="#C6190D" transform="translate(53,70)"/>
<path d="M0 0 C2.92824652 2.92824652 4.27239967 5.2979993 6 9 C4.35 11.31 2.7 13.62 1 16 C0.34 14.68 -0.32 13.36 -1 12 C-0.34 11.01 0.32 10.02 1 9 C0.01 9 -0.98 9 -2 9 C-1.34 6.03 -0.68 3.06 0 0 Z " fill="#D97C20" transform="translate(93,62)"/>
<path d="M0 0 C0.99 1.32 1.98 2.64 3 4 C2.67 4.66 2.34 5.32 2 6 C3.32 6.33 4.64 6.66 6 7 C3.69 7.33 1.38 7.66 -1 8 C-0.34 8.66 0.32 9.32 1 10 C0.01 10.33 -0.98 10.66 -2 11 C-1.67 11.99 -1.34 12.98 -1 14 C-1.27769908 16.3406065 -1.60539977 18.67624308 -2 21 C-2.66 21 -3.32 21 -4 21 C-4.738041 6.21867882 -4.738041 6.21867882 0 0 Z " fill="#C3230C" transform="translate(4,53)"/>
<path d="M0 0 C1.65 0 3.3 0 5 0 C5 0.66 5 1.32 5 2 C5.99 2.33 6.98 2.66 8 3 C8 4.32 8 5.64 8 7 C11.01031744 7.93423645 11.86650268 8.04449911 15 7 C15.66 7.66 16.32 8.32 17 9 C8.57142857 11.42857143 8.57142857 11.42857143 4 10 C4 9.34 4 8.68 4 8 C3.34 7.34 2.68 6.68 2 6 C2 5.01 2 4.02 2 3 C1.34 2.67 0.68 2.34 0 2 C0 1.34 0 0.68 0 0 Z " fill="#CE260C" transform="translate(15,20)"/>
<path d="M0 0 C0.66 0 1.32 0 2 0 C3.03041513 1.95330868 4.0490893 3.91281528 5.0625 5.875 C5.63097656 6.96554688 6.19945313 8.05609375 6.78515625 9.1796875 C7.38650391 10.57574219 7.38650391 10.57574219 8 12 C7.67 12.66 7.34 13.32 7 14 C5.6781638 12.92807816 4.36782073 11.84197305 3.0625 10.75 C2.33160156 10.14671875 1.60070312 9.5434375 0.84765625 8.921875 C-1.13218237 6.86250798 -1.82413025 5.83660892 -2 3 C-1.34 2.01 -0.68 1.02 0 0 Z " fill="#F27604" transform="translate(101,77)"/>
<path d="M0 0 C0.66 0.33 1.32 0.66 2 1 C2 1.99 2 2.98 2 4 C2.66 4.66 3.32 5.32 4 6 C3.38253906 6.06316406 2.76507813 6.12632813 2.12890625 6.19140625 C-0.21345013 6.81174624 -0.21345013 6.81174624 -1.16015625 9.21484375 C-1.45792969 10.11332031 -1.75570312 11.01179688 -2.0625 11.9375 C-3.69054972 16.79369981 -3.69054972 16.79369981 -7 19 C-6.33501617 14.61110675 -4.81242323 11.0188515 -3 7 C-4.65 7 -6.3 7 -8 7 C-7.01 6.67 -6.02 6.34 -5 6 C-5 5.34 -5 4.68 -5 4 C-4.01 4 -3.02 4 -2 4 C-1.34 2.68 -0.68 1.36 0 0 Z " fill="#F47A0B" transform="translate(67,34)"/>
<path d="M0 0 C1.24546405 2.49092811 0.7767578 3.41080733 0 6 C0.66 6.33 1.32 6.66 2 7 C1.34 8.98 0.68 10.96 0 13 C-0.66 13 -1.32 13 -2 13 C-2.33 13.99 -2.66 14.98 -3 16 C-3.886875 15.979375 -4.77375 15.95875 -5.6875 15.9375 C-8.62169631 15.99286219 -11.15493696 16.3305734 -14 17 C-14 16.34 -14 15.68 -14 15 C-6.57142857 12.85714286 -6.57142857 12.85714286 -3 12 C-3.061875 11.13375 -3.12375 10.2675 -3.1875 9.375 C-2.97544498 5.55800967 -1.87955693 3.28922464 0 0 Z " fill="#AC6A2B" transform="translate(70,42)"/>
<path d="M0 0 C0.66 0 1.32 0 2 0 C1.690625 0.639375 1.38125 1.27875 1.0625 1.9375 C-0.31935403 5.92049104 -0.6536543 9.81650849 -1 14 C-2.65 14.33 -4.3 14.66 -6 15 C-6.45826062 9.2717423 -5.55825861 6.5001506 -2 2 C-1.34 1.34 -0.68 0.68 0 0 Z " fill="#F7F0F0" transform="translate(47,44)"/>
<path d="M0 0 C-0.33 0.66 -0.66 1.32 -1 2 C-2.175625 2.0825 -3.35125 2.165 -4.5625 2.25 C-9.8584946 2.79195995 -13.22784704 5.37873316 -17 9 C-19.36702059 12.04797373 -19.36702059 12.04797373 -21 15 C-21.66 15.99 -22.32 16.98 -23 18 C-22.59544932 12.47114075 -20.82152181 8.89986736 -17 5 C-11.37605364 0.58458357 -7.06697643 -2.15081891 0 0 Z " fill="#57514E" transform="translate(116,29)"/>
<path d="M0 0 C0.66 0.33 1.32 0.66 2 1 C-6.82373886 10.52859373 -6.82373886 10.52859373 -13.45703125 11.27734375 C-18.44203298 11.45981087 -21.12548835 11.37457466 -25 8 C-24.67 7.34 -24.34 6.68 -24 6 C-23.34 6.66 -22.68 7.32 -22 8 C-15.93881446 9.0775441 -11.08964495 8.55418739 -5.9375 5.125 C-3.78474782 3.51335551 -1.90258654 1.90258654 0 0 Z " fill="#4B4244" transform="translate(92,88)"/>
<path d="M0 0 C0.33 0.66 0.66 1.32 1 2 C-2.61970011 7.76470758 -6.60105054 13.17255722 -13 16 C-15.72140364 16.2335533 -18.25919213 16.13936311 -21 16 C-21 15.01 -21 14.02 -21 13 C-19.80375 13.0825 -18.6075 13.165 -17.375 13.25 C-12.78768011 13.20968963 -10.52187951 12.07227787 -7 9 C-4.532908 6.09253458 -2.23213324 3.09064603 0 0 Z " fill="#44383A" transform="translate(33,62)"/>
<path d="M0 0 C0.99 0.33 1.98 0.66 3 1 C1.625 3.5 1.625 3.5 0 6 C-0.66 6 -1.32 6 -2 6 C-2 6.99 -2 7.98 -2 9 C0.4390706 11.20142332 0.4390706 11.20142332 3 13 C0.69 12.67 -1.62 12.34 -4 12 C-4.33 12.66 -4.66 13.32 -5 14 C-5.99 12.68 -6.98 11.36 -8 10 C-7.34 10 -6.68 10 -6 10 C-5.71125 9.4225 -5.4225 8.845 -5.125 8.25 C-4.75375 7.5075 -4.3825 6.765 -4 6 C-3.67 5.29875 -3.34 4.5975 -3 3.875 C-2 2 -2 2 0 0 Z " fill="#CA200B" transform="translate(31,38)"/>
<path d="M0 0 C0.99 0 1.98 0 3 0 C2.39301257 4.12751449 0.96189209 7.3321148 -1 11 C-2.31602523 10.38245741 -3.62773556 9.75571258 -4.9375 9.125 C-5.66839844 8.77695312 -6.39929688 8.42890625 -7.15234375 8.0703125 C-9 7 -9 7 -10 5 C-8.63875 5.1546875 -8.63875 5.1546875 -7.25 5.3125 C-3.80722348 5.35653433 -3.80722348 5.35653433 -1.8125 2.5 C-1.214375 1.675 -0.61625 0.85 0 0 Z " fill="#F5EDEA" transform="translate(115,38)"/>
<path d="M0 0 C0.66 0 1.32 0 2 0 C0.99032014 3.18437494 -0.06574465 6.13148931 -1.5625 9.125 C-3.79520576 14.12039723 -3.74329929 19.60928501 -4 25 C-4.33 25 -4.66 25 -5 25 C-6.95985039 17.40557976 -6.8012478 11.88707539 -3 4.9375 C-2.01821439 3.28073678 -1.02424012 1.63085853 0 0 Z " fill="#D21F10" transform="translate(120,39)"/>
<path d="M0 0 C0.33 0.66 0.66 1.32 1 2 C0.35933594 2.08636719 -0.28132813 2.17273437 -0.94140625 2.26171875 C-6.96998402 3.24102572 -11.6539453 4.55019333 -16 9 C-17.59296269 11.27836207 -18.76983 13.4904532 -20 16 C-20.6875 14.25 -20.6875 14.25 -21 12 C-16.31692377 4.11271373 -9.2608929 -0.75599126 0 0 Z " fill="#433739" transform="translate(40,31)"/>
<path d="M0 0 C0.53753906 0.32484375 1.07507813 0.6496875 1.62890625 0.984375 C4.54106689 2.23175847 6.7764124 2.26594496 9.9375 2.25 C10.95714844 2.25515625 11.97679687 2.2603125 13.02734375 2.265625 C16.05332204 1.99523535 18.25825647 1.27241136 21 0 C20.00827903 2.97516292 19.27035683 3.86152455 16.4375 5.3125 C11.14539951 6.3709201 6.20772416 6.2384794 1.4375 3.5625 C0 2 0 2 0 0 Z " fill="#574747" transform="translate(13,55)"/>
<path d="M0 0 C1.515625 1.21875 1.515625 1.21875 3 3 C3.109375 5.15625 3.109375 5.15625 2.75 7.5 C2.64171875 8.2734375 2.5334375 9.046875 2.421875 9.84375 C2 12 2 12 1 15 C0.34 14.67 -0.32 14.34 -1 14 C-1.625 11.9375 -1.625 11.9375 -2 10 C-1.34 10 -0.68 10 0 10 C-0.33 9.34 -0.66 8.68 -1 8 C-3.02463255 7.34786708 -3.02463255 7.34786708 -5 7 C-5.33 5.35 -5.66 3.7 -6 2 C-5.01 2.495 -5.01 2.495 -4 3 C-4 3.66 -4 4.32 -4 5 C-3.01 4.67 -2.02 4.34 -1 4 C-0.26676204 1.98491642 -0.26676204 1.98491642 0 0 Z " fill="#C1240B" transform="translate(15,4)"/>
<path d="M0 0 C1.98 0 3.96 0 6 0 C5.2884375 1.0828125 5.2884375 1.0828125 4.5625 2.1875 C2.23983331 6.36830005 1.619326 8.65495187 2.9375 13.3125 C3.288125 14.199375 3.63875 15.08625 4 16 C3.34 16.66 2.68 17.32 2 18 C-0.61281488 12.12116651 -0.18328202 6.29268272 0 0 Z " fill="#D2270C" transform="translate(0,0)"/>
<path d="M0 0 C1.1446875 0.3403125 1.1446875 0.3403125 2.3125 0.6875 C1.93255832 3.44207718 1.5051367 4.50770574 -0.5625 6.4375 C-2.6875 7.6875 -2.6875 7.6875 -5.6875 7.6875 C-5.91482116 4.88387237 -6.02831872 3.22563483 -4.5 0.8125 C-2.6875 -0.3125 -2.6875 -0.3125 0 0 Z " fill="#C7311B" transform="translate(20.6875,87.3125)"/>
<path d="M0 0 C-3.09652196 3.27346607 -5.95019912 5.97509956 -10 8 C-10.99 8 -11.98 8 -13 8 C-12.67 6.68 -12.34 5.36 -12 4 C-11.34 4 -10.68 4 -10 4 C-9.67 3.01 -9.34 2.02 -9 1 C-2.63157895 -1.31578947 -2.63157895 -1.31578947 0 0 Z " fill="#DA3219" transform="translate(31,60)"/>
<path d="M0 0 C0.99 0.33 1.98 0.66 3 1 C1.93351771 3.32169599 0.84835973 5.63094457 -0.25 7.9375 C-0.55035156 8.59685547 -0.85070312 9.25621094 -1.16015625 9.93554688 C-3.49991386 14.78929937 -3.49991386 14.78929937 -6.234375 15.94140625 C-6.81703125 15.96074219 -7.3996875 15.98007813 -8 16 C-6.57250019 12.20950293 -4.83763458 8.72877544 -2.875 5.1875 C-2.33617188 4.21167969 -1.79734375 3.23585937 -1.2421875 2.23046875 C-0.83226563 1.49441406 -0.42234375 0.75835937 0 0 Z " fill="#F3ECEB" transform="translate(108,54)"/>
<path d="M0 0 C0.33 0 0.66 0 1 0 C1.25 6.625 1.25 6.625 -1 10 C-2.32 10 -3.64 10 -5 10 C-5.33 8.02 -5.66 6.04 -6 4 C-5.38125 3.896875 -4.7625 3.79375 -4.125 3.6875 C-1.63473516 3.12474627 -1.63473516 3.12474627 0 0 Z " fill="#DB270D" transform="translate(64,111)"/>
<path d="M0 0 C1.27686349 3.83059047 0.48417075 5.36737194 -0.98046875 8.9921875 C-2.50587502 11.9962443 -4.35850879 13.93834832 -7 16 C-8.32 16 -9.64 16 -11 16 C-11 15.34 -11 14.68 -11 14 C-10.40574219 13.95875 -9.81148437 13.9175 -9.19921875 13.875 C-5.83608471 12.5369147 -5.28798681 10.21648538 -3.8125 7 C-1.03311258 1.03311258 -1.03311258 1.03311258 0 0 Z " fill="#6C3F35" transform="translate(41,79)"/>
<path d="M0 0 C0.5775 0.825 1.155 1.65 1.75 2.5 C3.85845994 4.6822253 4.92376489 4.99157349 8.00390625 5.33203125 C11.01605179 5.31424999 13.99585197 5.21560871 17 5 C14.55332359 7.93754565 14.55332359 7.93754565 12.02734375 8.22265625 C11.33769531 8.16980469 10.64804688 8.11695312 9.9375 8.0625 C8.638125 8.041875 7.33875 8.02125 6 8 C5.34 8.66 4.68 9.32 4 10 C2 8.9375 2 8.9375 0 7 C-0.25 3.3125 -0.25 3.3125 0 0 Z " fill="#C7190C" transform="translate(66,93)"/>
<path d="M0 0 C0.66 0 1.32 0 2 0 C0.57213674 6.02875597 -2.77527403 11.50434972 -7 16 C-9.73046875 16.79296875 -9.73046875 16.79296875 -12 17 C-12 16.34 -12 15.68 -12 15 C-11.278125 14.62875 -10.55625 14.2575 -9.8125 13.875 C-4.88074929 10.58716619 -2.55992823 5.22505899 0 0 Z " fill="#523F3C" transform="translate(52,81)"/>
<path d="M0 0 C3.99500618 1.3697164 6.80009492 3.25722422 10 6 C6.7 6 3.4 6 0 6 C0 4.02 0 2.04 0 0 Z " fill="#CF1707" transform="translate(47,122)"/>
<path d="M0 0 C-3.23035533 2.15357022 -4.31133458 2.29592637 -8.0625 2.3125 C-8.94035156 2.32925781 -9.81820313 2.34601562 -10.72265625 2.36328125 C-11.84994141 2.18345703 -11.84994141 2.18345703 -13 2 C-13.66 1.01 -14.32 0.02 -15 -1 C-10.85071099 -3.0746445 -4.43943353 -0.97112608 0 0 Z " fill="#DA2C14" transform="translate(34,51)"/>
<path d="M0 0 C1 3 1 3 -0.4375 6.1875 C-1.2109375 7.5796875 -1.2109375 7.5796875 -2 9 C-2.66 9 -3.32 9 -4 9 C-4.33 10.98 -4.66 12.96 -5 15 C-6.65 15.33 -8.3 15.66 -10 16 C-10 15.34 -10 14.68 -10 14 C-8.68 14 -7.36 14 -6 14 C-5.938125 13.175 -5.87625 12.35 -5.8125 11.5 C-4.76703783 6.99647063 -2.59542785 3.77342647 0 0 Z " fill="#70513A" transform="translate(80,41)"/>
<path d="M0 0 C0.33 1.32 0.66 2.64 1 4 C-3.65499974 4.81462495 -8.30976546 5.43393721 -13 6 C-13 5.34 -13 4.68 -13 4 C-4.6875 0.4375 -4.6875 0.4375 0 2 C0 1.34 0 0.68 0 0 Z " fill="#644849" transform="translate(85,72)"/>
<path d="M0 0 C0.66 0.33 1.32 0.66 2 1 C0.73549459 2.79613832 -0.53683488 4.58677034 -1.8125 6.375 C-2.52019531 7.37273437 -3.22789063 8.37046875 -3.95703125 9.3984375 C-6 12 -6 12 -9 14 C-10.32 14 -11.64 14 -13 14 C-13 13.34 -13 12.68 -13 12 C-12.29875 11.814375 -11.5975 11.62875 -10.875 11.4375 C-5.92862 8.96431 -3.0192559 4.52888385 0 0 Z " fill="#5F3B39" transform="translate(67,67)"/>
<path d="M0 0 C1.32 0.66 2.64 1.32 4 2 C4 2.66 4 3.32 4 4 C5.32 4.66 6.64 5.32 8 6 C8 6.99 8 7.98 8 9 C4.51460083 8.35455571 1.97180943 6.89865603 -1 5 C-0.34 4.34 0.32 3.68 1 3 C0.67 2.01 0.34 1.02 0 0 Z " fill="#C62D15" transform="translate(3,68)"/>
<path d="M0 0 C0 2.97 0 5.94 0 9 C-0.66 8.34 -1.32 7.68 -2 7 C-4.10820797 7.3185177 -4.10820797 7.3185177 -6 8 C-6 6.68 -6 5.36 -6 4 C-5.34 4 -4.68 4 -4 4 C-3.67 3.01 -3.34 2.02 -3 1 C-1 0 -1 0 0 0 Z " fill="#DE361C" transform="translate(12,43)"/>
<path d="M0 0 C0.99 0.99 1.98 1.98 3 3 C1.75 6.4375 1.75 6.4375 0 10 C-2.109375 10.72265625 -2.109375 10.72265625 -4 11 C-3.52269162 9.5410574 -3.04308958 8.08286504 -2.5625 6.625 C-2.29566406 5.81289063 -2.02882812 5.00078125 -1.75390625 4.1640625 C-1 2 -1 2 0 0 Z " fill="#AC3E2E" transform="translate(56,43)"/>
<path d="M0 0 C2.31 0 4.62 0 7 0 C7 0.99 7 1.98 7 3 C7.99 4.485 7.99 4.485 9 6 C8.01 7.32 7.02 8.64 6 10 C5.34 7.69 4.68 5.38 4 3 C2.68 2.67 1.36 2.34 0 2 C0 1.34 0 0.68 0 0 Z " fill="#EF740D" transform="translate(49,35)"/>
<path d="M0 0 C0 2.64 0 5.28 0 8 C-0.66 8 -1.32 8 -2 8 C-3.98 4.535 -3.98 4.535 -6 1 C-4 0 -4 0 0 0 Z " fill="#CD1807" transform="translate(58,114)"/>
<path d="M0 0 C0.33 0 0.66 0 1 0 C1.66 3.96 2.32 7.92 3 12 C1.35 11.67 -0.3 11.34 -2 11 C-2.33 10.01 -2.66 9.02 -3 8 C-2.34 7.01 -1.68 6.02 -1 5 C-0.61500109 3.34450469 -0.27206865 1.6777567 0 0 Z " fill="#DB180E" transform="translate(8,93)"/>
<path d="M0 0 C1.38069933 4.40837572 0.54846506 7.73492958 -1 12 C-2.4375 14 -2.4375 14 -4 15 C-4.99 15 -5.98 15 -7 15 C-7 14.34 -7 13.68 -7 13 C-6.360625 12.79375 -5.72125 12.5875 -5.0625 12.375 C-2.69008406 11.1369396 -2.69008406 11.1369396 -2.375 8.1875 C-2.189375 6.6096875 -2.189375 6.6096875 -2 5 C-1.37774395 3.31624835 -0.72455635 1.64232772 0 0 Z " fill="#724D2C" transform="translate(85,41)"/>
<path d="M0 0 C0.66 0.66 1.32 1.32 2 2 C2.33 1.34 2.66 0.68 3 0 C3.66 0 4.32 0 5 0 C4.43628586 3.26954202 3.50037734 4.82575883 1 7 C0.01 6.67 -0.98 6.34 -2 6 C-1.125 1.125 -1.125 1.125 0 0 Z " fill="#805A56" transform="translate(58,69)"/>
<path d="M0 0 C0.33 0.99 0.66 1.98 1 3 C-1.64 4.98 -4.28 6.96 -7 9 C-7.66 8.34 -8.32 7.68 -9 7 C-7.33333333 5.33333333 -5.66666667 3.66666667 -4 2 C-3.34 2.33 -2.68 2.66 -2 3 C-2 2.34 -2 1.68 -2 1 C-1.34 0.67 -0.68 0.34 0 0 Z " fill="#DB361D" transform="translate(23,29)"/>
<path d="M0 0 C-0.99 1.485 -0.99 1.485 -2 3 C-4.8125 3.125 -4.8125 3.125 -8 3 C-9.67453799 3.291224 -11.34550895 3.61070799 -13 4 C-13 3.34 -13 2.68 -13 2 C-10.66836622 1.32741333 -8.3347961 0.66152556 -6 0 C-5.236875 -0.226875 -4.47375 -0.45375 -3.6875 -0.6875 C-2 -1 -2 -1 0 0 Z " fill="#493839" transform="translate(69,55)"/>
<path d="M0 0 C0.66 0 1.32 0 2 0 C0.77472971 4.05281712 -0.69880494 7.44360764 -3 11 C-3.6875 9.375 -3.6875 9.375 -4 7 C-1.72413793 1.72413793 -1.72413793 1.72413793 0 0 Z " fill="#7A3E3C" transform="translate(49,45)"/>
<path d="M0 0 C-0.33 0.66 -0.66 1.32 -1 2 C-2.96903371 2.29535506 -4.94083576 2.58172087 -6.921875 2.78125 C-9.31913458 3.03359311 -11.64629057 3.48512606 -14 4 C-9.50273516 -0.94699132 -6.57642747 -1.26469759 0 0 Z " fill="#464548" transform="translate(116,29)"/>
<path d="M0 0 C0.66 0.66 1.32 1.32 2 2 C0.35 5.3 -1.3 8.6 -3 12 C-3.99 12 -4.98 12 -6 12 C-4.43358249 7.69235185 -2.31663844 3.93828536 0 0 Z " fill="#F0E1DF" transform="translate(31,77)"/>
<path d="M0 0 C0.99 1.32 1.98 2.64 3 4 C2.01 4.495 2.01 4.495 1 5 C1 5.99 1 6.98 1 8 C0.34 8 -0.32 8 -1 8 C-3 5 -3 5 -3 2 C-2.01 1.34 -1.02 0.68 0 0 Z " fill="#EF6802" transform="translate(92,17)"/>
<path d="M0 0 C0.99 0.33 1.98 0.66 3 1 C2.21654285 2.17219543 1.42297164 3.33763668 0.625 4.5 C0.18414062 5.1496875 -0.25671875 5.799375 -0.7109375 6.46875 C-1.13632812 6.9740625 -1.56171875 7.479375 -2 8 C-2.66 8 -3.32 8 -4 8 C-3.6875 5.125 -3.6875 5.125 -3 2 C-2.01 1.34 -1.02 0.68 0 0 Z " fill="#D32718" transform="translate(49,80)"/>
<path d="M0 0 C0.99 0.99 1.98 1.98 3 3 C2.67 3.99 2.34 4.98 2 6 C-0.0625 6.6875 -0.0625 6.6875 -2 7 C-2.6875 5.1875 -2.6875 5.1875 -3 3 C-1.5625 1.25 -1.5625 1.25 0 0 Z " fill="#EDE1D8" transform="translate(90,67)"/>
<path d="M0 0 C0.66 0.33 1.32 0.66 2 1 C2 2.98 2 4.96 2 7 C1.34 6.67 0.68 6.34 0 6 C-0.66 6.99 -1.32 7.98 -2 9 C-2.90870687 6.45562075 -3.14745938 5.36864845 -2.125 2.8125 C-1 1 -1 1 0 0 Z " fill="#B71409" transform="translate(29,35)"/>
<path d="M0 0 C1.37478516 0.01740234 1.37478516 0.01740234 2.77734375 0.03515625 C3.69644531 0.04417969 4.61554688 0.05320313 5.5625 0.0625 C6.27277344 0.07410156 6.98304687 0.08570313 7.71484375 0.09765625 C7.38484375 0.75765625 7.05484375 1.41765625 6.71484375 2.09765625 C4.73484375 2.09765625 2.75484375 2.09765625 0.71484375 2.09765625 C0.38484375 2.75765625 0.05484375 3.41765625 -0.28515625 4.09765625 C-1.27515625 3.10765625 -2.26515625 2.11765625 -3.28515625 1.09765625 C-2.28515625 0.09765625 -2.28515625 0.09765625 0 0 Z " fill="#CA1005" transform="translate(88.28515625,-0.09765625)"/>
<path d="M0 0 C1 2 1 2 0.0625 5.125 C-0.288125 6.07375 -0.63875 7.0225 -1 8 C-1.99 7.67 -2.98 7.34 -4 7 C-3.67 5.02 -3.34 3.04 -3 1 C-2.01 0.67 -1.02 0.34 0 0 Z " fill="#F6EADE" transform="translate(90,56)"/>
<path d="M0 0 C0.99 0.33 1.98 0.66 3 1 C1.625 3.5 1.625 3.5 0 6 C-0.66 6 -1.32 6 -2 6 C-2.33 6.99 -2.66 7.98 -3 9 C-3.36923077 3.46153846 -3.36923077 3.46153846 -1.5 1.125 C-1.005 0.75375 -0.51 0.3825 0 0 Z " fill="#CC1307" transform="translate(31,38)"/>
<path d="M0 0 C0.66 0.33 1.32 0.66 2 1 C0.93283928 2.20205464 -0.15438337 3.38632333 -1.25 4.5625 C-2.15492187 5.55443359 -2.15492187 5.55443359 -3.078125 6.56640625 C-5 8 -5 8 -7.234375 7.71484375 C-7.81703125 7.47894531 -8.3996875 7.24304688 -9 7 C-8.43410156 6.57847656 -7.86820312 6.15695313 -7.28515625 5.72265625 C-6.55167969 5.17480469 -5.81820312 4.62695312 -5.0625 4.0625 C-4.33160156 3.51722656 -3.60070312 2.97195312 -2.84765625 2.41015625 C-1.0865547 1.13092062 -1.0865547 1.13092062 0 0 Z " fill="#3B3638" transform="translate(92,88)"/>
<path d="M0 0 C0.66 0.66 1.32 1.32 2 2 C2.33 1.34 2.66 0.68 3 0 C3.99 0 4.98 0 6 0 C6 2 6 2 4.625 3.5 C4.08875 3.995 3.5525 4.49 3 5 C2.34 5.66 1.68 6.32 1 7 C0 6 0 6 -0.0625 2.9375 C-0.041875 1.968125 -0.02125 0.99875 0 0 Z " fill="#CCC8C9" transform="translate(37,77)"/>
<path d="M0 0 C1.15941038 3.47823115 0.70820884 5.45895578 0 9 C-0.99 9 -1.98 9 -3 9 C-3.26218749 5.85375007 -3.24754367 4.38162983 -1.5 1.6875 C-1.005 1.130625 -0.51 0.57375 0 0 Z " fill="#F2F2F2" transform="translate(68,68)"/>
<path d="M0 0 C-0.66 3.96 -1.32 7.92 -2 12 C-2.33 12 -2.66 12 -3 12 C-3.33 8.37 -3.66 4.74 -4 1 C-2 0 -2 0 0 0 Z " fill="#F29132" transform="translate(89,37)"/>
<path d="M0 0 C0.99 0 1.98 0 3 0 C2.67 1.65 2.34 3.3 2 5 C1.01 5 0.02 5 -1 5 C-1 1 -1 1 0 0 Z " fill="#F3DFDB" transform="translate(59,66)"/>
<path d="M0 0 C0.33 0 0.66 0 1 0 C1.25 2.75 1.25 2.75 1 6 C-1 8.375 -1 8.375 -3 10 C-2.39009109 6.44219804 -1.4216319 3.3171411 0 0 Z " fill="#7C4D36" transform="translate(63,43)"/>
<path d="M0 0 C0.99 0.495 0.99 0.495 2 1 C2 2.32 2 3.64 2 5 C1.34 5 0.68 5 0 5 C0 3.35 0 1.7 0 0 Z M-4 4 C-2.68 4.66 -1.36 5.32 0 6 C-1.98 6.99 -1.98 6.99 -4 8 C-4 6.68 -4 5.36 -4 4 Z " fill="#AD1006" transform="translate(30,21)"/>
<path d="M0 0 C1.64284201 2.95711562 2.6442194 5.62008426 3 9 C2.34 9.66 1.68 10.32 1 11 C1 10.34 1 9.68 1 9 C0.34 8.67 -0.32 8.34 -1 8 C-0.67 5.36 -0.34 2.72 0 0 Z " fill="#B6220B" transform="translate(104,0)"/>
<path d="M0 0 C0 0.66 0 1.32 0 2 C-1.65 2.33 -3.3 2.66 -5 3 C-5.33 3.99 -5.66 4.98 -6 6 C-6.33 5.01 -6.66 4.02 -7 3 C-4.49955934 -0.00052879 -4.2621484 0 0 0 Z " fill="#514B4D" transform="translate(22,87)"/>
<path d="M0 0 C2.475 0.495 2.475 0.495 5 1 C3.515 3.475 3.515 3.475 2 6 C1.34 5.34 0.68 4.68 0 4 C0 2.68 0 1.36 0 0 Z " fill="#E03319" transform="translate(22,84)"/>
<path d="M0 0 C0.66 0 1.32 0 2 0 C1.45773019 3.79588866 -0.20127563 5.47211993 -3 8 C-2.45276317 4.62537285 -1.9451 2.91765 0 0 Z " fill="#CC261B" transform="translate(45,42)"/>
<path d="M0 0 C0 0.99 0 1.98 0 3 C-3 5.1875 -3 5.1875 -6 7 C-6 6.01 -6 5.02 -6 4 C-3 1.8125 -3 1.8125 0 0 Z " fill="#8E1609" transform="translate(127,37)"/>
<path d="M0 0 C0.598125 0.185625 1.19625 0.37125 1.8125 0.5625 C4.16408762 1.22093687 4.16408762 1.22093687 7 0 C7.66 0.66 8.32 1.32 9 2 C6.36 2.66 3.72 3.32 1 4 C0.67 2.68 0.34 1.36 0 0 Z " fill="#C6271C" transform="translate(23,27)"/>
</svg>
